<svg xmlns="http://www.w3.org/2000/svg" viewBox="0 0 534.14 317.48"><defs><style>.cls-1{fill:#fff;}</style></defs><title>Asset 1</title><g id="Layer_2" data-name="Layer 2"><g id="Layer_1-2" data-name="Layer 1"><path class="cls-1" d="M8.48,2.56A1.28,1.28,0,0,0,8.48,0a1.28,1.28,0,0,0,0,2.56Z"/><path class="cls-1" d="M22.88,2.56a1.28,1.28,0,1,0,0-2.56,1.28,1.28,0,0,0,0,2.56Z"/><path class="cls-1" d="M37.28,2.56a1.28,1.28,0,1,0,0-2.56,1.28,1.28,0,0,0,0,2.56Z"/><circle class="cls-1" cx="51.68" cy="1.28" r="1.28"/><path class="cls-1" d="M66.08,2.56a1.28,1.28,0,1,0,0-2.56,1.28,1.28,0,0,0,0,2.56Z"/><path class="cls-1" d="M80.48,2.56a1.28,1.28,0,1,0,0-2.56,1.28,1.28,0,0,0,0,2.56Z"/><path class="cls-1" d="M94.88,2.56a1.28,1.28,0,1,0,0-2.56,1.28,1.28,0,0,0,0,2.56Z"/><path class="cls-1" d="M109.28,2.56a1.28,1.28,0,1,0,0-2.56,1.28,1.28,0,0,0,0,2.56Z"/><circle class="cls-1" cx="123.68" cy="1.28" r="1.28"/><path class="cls-1" d="M138.08,2.56a1.28,1.28,0,1,0,0-2.56,1.28,1.28,0,0,0,0,2.56Z"/><path class="cls-1" d="M152.48,2.56a1.28,1.28,0,1,0,0-2.56,1.28,1.28,0,0,0,0,2.56Z"/><path class="cls-1" d="M166.88,2.56a1.28,1.28,0,1,0,0-2.56,1.28,1.28,0,0,0,0,2.56Z"/><path class="cls-1" d="M181.28,2.56a1.28,1.28,0,1,0,0-2.56,1.28,1.28,0,0,0,0,2.56Z"/><circle class="cls-1" cx="195.68" cy="1.28" r="1.28"/><path class="cls-1" d="M210.08,2.56a1.28,1.28,0,1,0,0-2.56,1.28,1.28,0,0,0,0,2.56Z"/><path class="cls-1" d="M224.48,2.56a1.28,1.28,0,1,0,0-2.56,1.28,1.28,0,0,0,0,2.56Z"/><path class="cls-1" d="M238.88,2.56a1.28,1.28,0,1,0,0-2.56,1.28,1.28,0,0,0,0,2.56Z"/><path class="cls-1" d="M253.28,2.56a1.28,1.28,0,1,0,0-2.56,1.28,1.28,0,0,0,0,2.56Z"/><circle class="cls-1" cx="267.68" cy="1.28" r="1.28"/><path class="cls-1" d="M282.08,2.56a1.28,1.28,0,1,0,0-2.56,1.28,1.28,0,1,0,0,2.56Z"/><path class="cls-1" d="M296.48,2.56a1.28,1.28,0,0,0,0-2.56,1.28,1.28,0,0,0,0,2.56Z"/><path class="cls-1" d="M310.88,2.56a1.28,1.28,0,1,0,0-2.56,1.28,1.28,0,1,0,0,2.56Z"/><path class="cls-1" d="M1.28,17a1.28,1.28,0,0,0,0-2.56,1.28,1.28,0,0,0,0,2.56Z"/><circle class="cls-1" cx="15.68" cy="15.68" r="1.28"/><path class="cls-1" d="M30.08,17a1.28,1.28,0,1,0,0-2.56,1.28,1.28,0,1,0,0,2.56Z"/><path class="cls-1" d="M44.48,17a1.28,1.28,0,1,0,0-2.56,1.28,1.28,0,0,0,0,2.56Z"/><path class="cls-1" d="M58.88,17a1.28,1.28,0,0,0,0-2.56,1.28,1.28,0,0,0,0,2.56Z"/><path class="cls-1" d="M73.28,17a1.28,1.28,0,1,0,0-2.56,1.28,1.28,0,0,0,0,2.56Z"/><circle class="cls-1" cx="87.68" cy="15.68" r="1.28"/><path class="cls-1" d="M102.08,17a1.28,1.28,0,1,0,0-2.56,1.28,1.28,0,0,0,0,2.56Z"/><path class="cls-1" d="M116.48,17a1.28,1.28,0,1,0,0-2.56,1.28,1.28,0,0,0,0,2.56Z"/><path class="cls-1" d="M130.88,17a1.28,1.28,0,1,0,0-2.56,1.28,1.28,0,0,0,0,2.56Z"/><path class="cls-1" d="M145.28,17a1.28,1.28,0,1,0,0-2.56,1.28,1.28,0,0,0,0,2.56Z"/><circle class="cls-1" cx="159.68" cy="15.68" r="1.28"/><path class="cls-1" d="M174.08,17a1.28,1.28,0,1,0,0-2.56,1.28,1.28,0,0,0,0,2.56Z"/><path class="cls-1" d="M188.48,17a1.28,1.28,0,1,0,0-2.56,1.28,1.28,0,0,0,0,2.56Z"/><path class="cls-1" d="M202.88,17a1.28,1.28,0,1,0,0-2.56,1.28,1.28,0,0,0,0,2.56Z"/><path class="cls-1" d="M217.28,17a1.28,1.28,0,1,0,0-2.56,1.28,1.28,0,0,0,0,2.56Z"/><circle class="cls-1" cx="231.68" cy="15.68" r="1.28"/><path class="cls-1" d="M246.08,17a1.28,1.28,0,1,0,0-2.56,1.28,1.28,0,0,0,0,2.56Z"/><path class="cls-1" d="M260.48,17a1.28,1.28,0,0,0,0-2.56,1.28,1.28,0,0,0,0,2.56Z"/><path class="cls-1" d="M274.88,17a1.28,1.28,0,1,0,0-2.56,1.28,1.28,0,1,0,0,2.56Z"/><path class="cls-1" d="M289.28,17a1.28,1.28,0,1,0,0-2.56,1.28,1.28,0,1,0,0,2.56Z"/><circle class="cls-1" cx="303.68" cy="15.68" r="1.28"/><path class="cls-1" d="M8.48,31.36a1.28,1.28,0,0,0,0-2.56,1.28,1.28,0,1,0,0,2.56Z"/><path class="cls-1" d="M22.88,31.36a1.28,1.28,0,1,0,0-2.56,1.28,1.28,0,1,0,0,2.56Z"/><path class="cls-1" d="M37.28,31.36a1.28,1.28,0,1,0,0-2.56,1.28,1.28,0,0,0,0,2.56Z"/><path class="cls-1" d="M51.68,31.36a1.28,1.28,0,1,0,0-2.56,1.28,1.28,0,1,0,0,2.56Z"/><path class="cls-1" d="M66.08,31.36a1.28,1.28,0,1,0,0-2.56,1.28,1.28,0,0,0,0,2.56Z"/><path class="cls-1" d="M80.48,31.36a1.28,1.28,0,1,0,0-2.56,1.28,1.28,0,0,0,0,2.56Z"/><path class="cls-1" d="M94.88,31.36a1.28,1.28,0,1,0,0-2.56,1.28,1.28,0,0,0,0,2.56Z"/><path class="cls-1" d="M109.28,31.36a1.28,1.28,0,1,0,0-2.56,1.28,1.28,0,0,0,0,2.56Z"/><path class="cls-1" d="M123.68,31.36a1.28,1.28,0,0,0,0-2.56,1.28,1.28,0,0,0,0,2.56Z"/><path class="cls-1" d="M138.08,31.36a1.28,1.28,0,1,0,0-2.56,1.28,1.28,0,0,0,0,2.56Z"/><path class="cls-1" d="M152.48,31.36a1.28,1.28,0,1,0,0-2.56,1.28,1.28,0,0,0,0,2.56Z"/><path class="cls-1" d="M166.88,31.36a1.28,1.28,0,1,0,0-2.56,1.28,1.28,0,0,0,0,2.56Z"/><path class="cls-1" d="M181.28,31.36a1.28,1.28,0,1,0,0-2.56,1.28,1.28,0,0,0,0,2.56Z"/><path class="cls-1" d="M195.68,31.36a1.28,1.28,0,1,0,0-2.56,1.28,1.28,0,0,0,0,2.56Z"/><path class="cls-1" d="M210.08,31.36a1.28,1.28,0,1,0,0-2.56,1.28,1.28,0,0,0,0,2.56Z"/><path class="cls-1" d="M224.48,31.36a1.28,1.28,0,1,0,0-2.56,1.28,1.28,0,0,0,0,2.56Z"/><path class="cls-1" d="M238.88,31.36a1.28,1.28,0,1,0,0-2.56,1.28,1.28,0,0,0,0,2.56Z"/><path class="cls-1" d="M253.28,31.36a1.28,1.28,0,1,0,0-2.56,1.28,1.28,0,0,0,0,2.56Z"/><path class="cls-1" d="M267.68,31.36a1.28,1.28,0,0,0,0-2.56,1.28,1.28,0,0,0,0,2.56Z"/><path class="cls-1" d="M282.08,31.36a1.28,1.28,0,1,0,0-2.56,1.28,1.28,0,1,0,0,2.56Z"/><path class="cls-1" d="M296.48,31.36a1.28,1.28,0,0,0,0-2.56,1.28,1.28,0,0,0,0,2.56Z"/><path class="cls-1" d="M310.88,31.36a1.28,1.28,0,1,0,0-2.56,1.28,1.28,0,1,0,0,2.56Z"/><path class="cls-1" d="M1.28,45.76a1.28,1.28,0,0,0,0-2.56,1.28,1.28,0,1,0,0,2.56Z"/><path class="cls-1" d="M15.68,45.76a1.28,1.28,0,0,0,0-2.56,1.28,1.28,0,1,0,0,2.56Z"/><path class="cls-1" d="M30.08,45.76a1.28,1.28,0,1,0,0-2.56,1.28,1.28,0,1,0,0,2.56Z"/><path class="cls-1" d="M44.48,45.76a1.28,1.28,0,1,0,0-2.56,1.28,1.28,0,1,0,0,2.56Z"/><path class="cls-1" d="M58.88,45.76a1.28,1.28,0,0,0,0-2.56,1.28,1.28,0,0,0,0,2.56Z"/><path class="cls-1" d="M73.28,45.76a1.28,1.28,0,1,0,0-2.56,1.28,1.28,0,1,0,0,2.56Z"/><path class="cls-1" d="M87.68,45.76a1.28,1.28,0,0,0,0-2.56,1.28,1.28,0,1,0,0,2.56Z"/><path class="cls-1" d="M102.08,45.76a1.28,1.28,0,1,0,0-2.56,1.28,1.28,0,1,0,0,2.56Z"/><path class="cls-1" d="M116.48,45.76a1.28,1.28,0,1,0,0-2.56,1.28,1.28,0,0,0,0,2.56Z"/><path class="cls-1" d="M130.88,45.76a1.28,1.28,0,1,0,0-2.56,1.28,1.28,0,0,0,0,2.56Z"/><path class="cls-1" d="M145.28,45.76a1.28,1.28,0,1,0,0-2.56,1.28,1.28,0,0,0,0,2.56Z"/><path class="cls-1" d="M159.68,45.76a1.28,1.28,0,1,0,0-2.56,1.28,1.28,0,0,0,0,2.56Z"/><path class="cls-1" d="M174.08,45.76a1.28,1.28,0,1,0,0-2.56,1.28,1.28,0,0,0,0,2.56Z"/><path class="cls-1" d="M188.48,45.76a1.28,1.28,0,1,0,0-2.56,1.28,1.28,0,0,0,0,2.56Z"/><path class="cls-1" d="M202.88,45.76a1.28,1.28,0,1,0,0-2.56,1.28,1.28,0,0,0,0,2.56Z"/><path class="cls-1" d="M217.28,45.76a1.28,1.28,0,1,0,0-2.56,1.28,1.28,0,0,0,0,2.56Z"/><path class="cls-1" d="M231.68,45.76a1.28,1.28,0,1,0,0-2.56,1.28,1.28,0,0,0,0,2.56Z"/><path class="cls-1" d="M246.08,45.76a1.28,1.28,0,1,0,0-2.56,1.28,1.28,0,0,0,0,2.56Z"/><path class="cls-1" d="M260.48,45.76a1.28,1.28,0,0,0,0-2.56,1.28,1.28,0,0,0,0,2.56Z"/><path class="cls-1" d="M274.88,45.76a1.28,1.28,0,1,0,0-2.56,1.28,1.28,0,1,0,0,2.56Z"/><path class="cls-1" d="M289.28,45.76a1.28,1.28,0,1,0,0-2.56,1.28,1.28,0,1,0,0,2.56Z"/><path class="cls-1" d="M303.68,45.76a1.28,1.28,0,0,0,0-2.56,1.28,1.28,0,0,0,0,2.56Z"/><path class="cls-1" d="M8.48,60.16a1.28,1.28,0,0,0,0-2.56,1.28,1.28,0,0,0,0,2.56Z"/><path class="cls-1" d="M22.88,60.16a1.28,1.28,0,0,0,0-2.56,1.28,1.28,0,0,0,0,2.56Z"/><path class="cls-1" d="M37.28,60.16a1.28,1.28,0,0,0,0-2.56,1.28,1.28,0,0,0,0,2.56Z"/><path class="cls-1" d="M51.68,60.16a1.28,1.28,0,1,0,0-2.56,1.28,1.28,0,0,0,0,2.56Z"/><path class="cls-1" d="M66.08,60.16a1.28,1.28,0,1,0,0-2.56,1.28,1.28,0,0,0,0,2.56Z"/><path class="cls-1" d="M80.48,60.16a1.28,1.28,0,0,0,0-2.56,1.28,1.28,0,0,0,0,2.56Z"/><path class="cls-1" d="M94.88,60.16a1.28,1.28,0,0,0,0-2.56,1.28,1.28,0,0,0,0,2.56Z"/><path class="cls-1" d="M109.28,60.16a1.28,1.28,0,0,0,0-2.56,1.28,1.28,0,0,0,0,2.56Z"/><path class="cls-1" d="M123.68,60.16a1.28,1.28,0,0,0,0-2.56,1.28,1.28,0,0,0,0,2.56Z"/><path class="cls-1" d="M138.08,60.16a1.28,1.28,0,1,0,0-2.56,1.28,1.28,0,0,0,0,2.56Z"/><path class="cls-1" d="M152.48,60.16a1.28,1.28,0,1,0,0-2.56,1.28,1.28,0,0,0,0,2.56Z"/><path class="cls-1" d="M166.88,60.16a1.28,1.28,0,1,0,0-2.56,1.28,1.28,0,0,0,0,2.56Z"/><path class="cls-1" d="M181.28,60.16a1.28,1.28,0,1,0,0-2.56,1.28,1.28,0,0,0,0,2.56Z"/><path class="cls-1" d="M195.68,60.16a1.28,1.28,0,1,0,0-2.56,1.28,1.28,0,0,0,0,2.56Z"/><path class="cls-1" d="M210.08,60.16a1.28,1.28,0,1,0,0-2.56,1.28,1.28,0,0,0,0,2.56Z"/><path class="cls-1" d="M224.48,60.16a1.28,1.28,0,1,0,0-2.56,1.28,1.28,0,0,0,0,2.56Z"/><path class="cls-1" d="M238.88,60.16a1.28,1.28,0,1,0,0-2.56,1.28,1.28,0,0,0,0,2.56Z"/><path class="cls-1" d="M253.28,60.16a1.28,1.28,0,1,0,0-2.56,1.28,1.28,0,0,0,0,2.56Z"/><path class="cls-1" d="M267.68,60.16a1.28,1.28,0,0,0,0-2.56,1.28,1.28,0,0,0,0,2.56Z"/><path class="cls-1" d="M282.08,60.16a1.28,1.28,0,1,0,0-2.56,1.28,1.28,0,1,0,0,2.56Z"/><path class="cls-1" d="M296.48,60.16a1.28,1.28,0,0,0,0-2.56,1.28,1.28,0,0,0,0,2.56Z"/><path class="cls-1" d="M310.88,60.16a1.28,1.28,0,1,0,0-2.56,1.28,1.28,0,1,0,0,2.56Z"/><path class="cls-1" d="M1.28,74.56a1.28,1.28,0,1,0,0-2.56,1.28,1.28,0,0,0,0,2.56Z"/><circle class="cls-1" cx="15.68" cy="73.28" r="1.28"/><path class="cls-1" d="M30.08,74.56a1.28,1.28,0,0,0,0-2.56,1.28,1.28,0,1,0,0,2.56Z"/><path class="cls-1" d="M44.48,74.56a1.28,1.28,0,0,0,0-2.56,1.28,1.28,0,1,0,0,2.56Z"/><path class="cls-1" d="M58.88,74.56a1.28,1.28,0,0,0,0-2.56,1.28,1.28,0,1,0,0,2.56Z"/><path class="cls-1" d="M73.28,74.56a1.28,1.28,0,0,0,0-2.56,1.28,1.28,0,0,0,0,2.56Z"/><circle class="cls-1" cx="87.68" cy="73.28" r="1.28"/><path class="cls-1" d="M102.08,74.56a1.28,1.28,0,1,0,0-2.56,1.28,1.28,0,0,0,0,2.56Z"/><path class="cls-1" d="M116.48,74.56a1.28,1.28,0,0,0,0-2.56,1.28,1.28,0,1,0,0,2.56Z"/><path class="cls-1" d="M130.88,74.56a1.28,1.28,0,0,0,0-2.56,1.28,1.28,0,0,0,0,2.56Z"/><path class="cls-1" d="M145.28,74.56a1.28,1.28,0,0,0,0-2.56,1.28,1.28,0,0,0,0,2.56Z"/><circle class="cls-1" cx="159.68" cy="73.28" r="1.28"/><path class="cls-1" d="M174.08,74.56a1.28,1.28,0,0,0,0-2.56,1.28,1.28,0,0,0,0,2.56Z"/><path class="cls-1" d="M188.48,74.56a1.28,1.28,0,0,0,0-2.56,1.28,1.28,0,0,0,0,2.56Z"/><path class="cls-1" d="M202.88,74.56a1.28,1.28,0,0,0,0-2.56,1.28,1.28,0,0,0,0,2.56Z"/><path class="cls-1" d="M217.28,74.56a1.28,1.28,0,0,0,0-2.56,1.28,1.28,0,0,0,0,2.56Z"/><circle class="cls-1" cx="231.68" cy="73.28" r="1.28"/><path class="cls-1" d="M246.08,74.56a1.28,1.28,0,0,0,0-2.56,1.28,1.28,0,0,0,0,2.56Z"/><path class="cls-1" d="M260.48,74.56a1.28,1.28,0,0,0,0-2.56,1.28,1.28,0,0,0,0,2.56Z"/><path class="cls-1" d="M274.88,74.56a1.28,1.28,0,1,0,0-2.56,1.28,1.28,0,1,0,0,2.56Z"/><path class="cls-1" d="M289.28,74.56a1.28,1.28,0,1,0,0-2.56,1.28,1.28,0,1,0,0,2.56Z"/><circle class="cls-1" cx="303.68" cy="73.28" r="1.28"/><path class="cls-1" d="M8.48,89a1.28,1.28,0,0,0,0-2.56,1.28,1.28,0,1,0,0,2.56Z"/><path class="cls-1" d="M22.88,89a1.28,1.28,0,0,0,0-2.56,1.28,1.28,0,1,0,0,2.56Z"/><path class="cls-1" d="M37.28,89a1.28,1.28,0,0,0,0-2.56,1.28,1.28,0,1,0,0,2.56Z"/><circle class="cls-1" cx="51.68" cy="87.68" r="1.28"/><path class="cls-1" d="M66.08,89a1.28,1.28,0,1,0,0-2.56,1.28,1.28,0,0,0,0,2.56Z"/><path class="cls-1" d="M80.48,89a1.28,1.28,0,1,0,0-2.56,1.28,1.28,0,0,0,0,2.56Z"/><path class="cls-1" d="M94.88,89a1.28,1.28,0,1,0,0-2.56,1.28,1.28,0,0,0,0,2.56Z"/><path class="cls-1" d="M109.28,89a1.28,1.28,0,1,0,0-2.56,1.28,1.28,0,0,0,0,2.56Z"/><circle class="cls-1" cx="123.68" cy="87.68" r="1.28"/><path class="cls-1" d="M138.08,89a1.28,1.28,0,0,0,0-2.56,1.28,1.28,0,0,0,0,2.56Z"/><path class="cls-1" d="M152.48,89a1.28,1.28,0,0,0,0-2.56,1.28,1.28,0,0,0,0,2.56Z"/><path class="cls-1" d="M166.88,89a1.28,1.28,0,0,0,0-2.56,1.28,1.28,0,0,0,0,2.56Z"/><path class="cls-1" d="M181.28,89a1.28,1.28,0,0,0,0-2.56,1.28,1.28,0,0,0,0,2.56Z"/><circle class="cls-1" cx="195.68" cy="87.68" r="1.28"/><path class="cls-1" d="M210.08,89a1.28,1.28,0,0,0,0-2.56,1.28,1.28,0,0,0,0,2.56Z"/><path class="cls-1" d="M224.48,89a1.28,1.28,0,1,0,0-2.56,1.28,1.28,0,0,0,0,2.56Z"/><path class="cls-1" d="M238.88,89a1.28,1.28,0,1,0,0-2.56,1.28,1.28,0,0,0,0,2.56Z"/><path class="cls-1" d="M253.28,89a1.28,1.28,0,1,0,0-2.56,1.28,1.28,0,0,0,0,2.56Z"/><circle class="cls-1" cx="267.68" cy="87.68" r="1.28"/><path class="cls-1" d="M282.08,89a1.28,1.28,0,1,0,0-2.56,1.28,1.28,0,1,0,0,2.56Z"/><path class="cls-1" d="M296.48,89a1.28,1.28,0,0,0,0-2.56,1.28,1.28,0,1,0,0,2.56Z"/><path class="cls-1" d="M310.88,89a1.28,1.28,0,1,0,0-2.56,1.28,1.28,0,1,0,0,2.56Z"/><path class="cls-1" d="M1.28,103.36a1.28,1.28,0,1,0,0-2.56,1.28,1.28,0,0,0,0,2.56Z"/><path class="cls-1" d="M15.68,103.36a1.28,1.28,0,0,0,0-2.56,1.28,1.28,0,1,0,0,2.56Z"/><path class="cls-1" d="M30.08,103.36a1.28,1.28,0,0,0,0-2.56,1.28,1.28,0,1,0,0,2.56Z"/><path class="cls-1" d="M44.48,103.36a1.28,1.28,0,1,0,0-2.56,1.28,1.28,0,1,0,0,2.56Z"/><path class="cls-1" d="M58.88,103.36a1.28,1.28,0,0,0,0-2.56,1.28,1.28,0,0,0,0,2.56Z"/><path class="cls-1" d="M73.28,103.36a1.28,1.28,0,0,0,0-2.56,1.28,1.28,0,0,0,0,2.56Z"/><path class="cls-1" d="M87.68,103.36a1.28,1.28,0,0,0,0-2.56,1.28,1.28,0,0,0,0,2.56Z"/><path class="cls-1" d="M102.08,103.36a1.28,1.28,0,0,0,0-2.56,1.28,1.28,0,0,0,0,2.56Z"/><path class="cls-1" d="M116.48,103.36a1.28,1.28,0,0,0,0-2.56,1.28,1.28,0,0,0,0,2.56Z"/><path class="cls-1" d="M130.88,103.36a1.28,1.28,0,0,0,0-2.56,1.28,1.28,0,0,0,0,2.56Z"/><path class="cls-1" d="M145.28,103.36a1.28,1.28,0,1,0,0-2.56,1.28,1.28,0,1,0,0,2.56Z"/><path class="cls-1" d="M159.68,103.36a1.28,1.28,0,0,0,0-2.56,1.28,1.28,0,0,0,0,2.56Z"/><path class="cls-1" d="M174.08,103.36a1.28,1.28,0,1,0,0-2.56,1.28,1.28,0,1,0,0,2.56Z"/><path class="cls-1" d="M188.48,103.36a1.28,1.28,0,1,0,0-2.56,1.28,1.28,0,1,0,0,2.56Z"/><path class="cls-1" d="M202.88,103.36a1.28,1.28,0,0,0,0-2.56,1.28,1.28,0,0,0,0,2.56Z"/><path class="cls-1" d="M217.28,103.36a1.28,1.28,0,1,0,0-2.56,1.28,1.28,0,0,0,0,2.56Z"/><path class="cls-1" d="M231.68,103.36a1.28,1.28,0,0,0,0-2.56,1.28,1.28,0,0,0,0,2.56Z"/><path class="cls-1" d="M246.08,103.36a1.28,1.28,0,1,0,0-2.56,1.28,1.28,0,1,0,0,2.56Z"/><path class="cls-1" d="M260.48,103.36a1.28,1.28,0,0,0,0-2.56,1.28,1.28,0,0,0,0,2.56Z"/><path class="cls-1" d="M274.88,103.36a1.28,1.28,0,1,0,0-2.56,1.28,1.28,0,1,0,0,2.56Z"/><path class="cls-1" d="M289.28,103.36a1.28,1.28,0,1,0,0-2.56,1.28,1.28,0,1,0,0,2.56Z"/><path class="cls-1" d="M303.68,103.36a1.28,1.28,0,0,0,0-2.56,1.28,1.28,0,0,0,0,2.56Z"/><path class="cls-1" d="M8.48,117.76a1.28,1.28,0,0,0,0-2.56,1.28,1.28,0,1,0,0,2.56Z"/><path class="cls-1" d="M22.88,117.76a1.28,1.28,0,1,0,0-2.56,1.28,1.28,0,1,0,0,2.56Z"/><path class="cls-1" d="M37.28,117.76a1.28,1.28,0,0,0,0-2.56,1.28,1.28,0,1,0,0,2.56Z"/><path class="cls-1" d="M51.68,117.76a1.28,1.28,0,0,0,0-2.56,1.28,1.28,0,1,0,0,2.56Z"/><path class="cls-1" d="M66.08,117.76a1.28,1.28,0,0,0,0-2.56,1.28,1.28,0,0,0,0,2.56Z"/><path class="cls-1" d="M80.48,117.76a1.28,1.28,0,0,0,0-2.56,1.28,1.28,0,0,0,0,2.56Z"/><path class="cls-1" d="M94.88,117.76a1.28,1.28,0,0,0,0-2.56,1.28,1.28,0,0,0,0,2.56Z"/><path class="cls-1" d="M109.28,117.76a1.28,1.28,0,0,0,0-2.56,1.28,1.28,0,0,0,0,2.56Z"/><path class="cls-1" d="M123.68,117.76a1.28,1.28,0,0,0,0-2.56,1.28,1.28,0,0,0,0,2.56Z"/><path class="cls-1" d="M138.08,117.76a1.28,1.28,0,1,0,0-2.56,1.28,1.28,0,1,0,0,2.56Z"/><path class="cls-1" d="M152.48,117.76a1.28,1.28,0,1,0,0-2.56,1.28,1.28,0,1,0,0,2.56Z"/><path class="cls-1" d="M166.88,117.76a1.28,1.28,0,0,0,0-2.56,1.28,1.28,0,0,0,0,2.56Z"/><path class="cls-1" d="M181.28,117.76a1.28,1.28,0,0,0,0-2.56,1.28,1.28,0,1,0,0,2.56Z"/><path class="cls-1" d="M195.68,117.76a1.28,1.28,0,0,0,0-2.56,1.28,1.28,0,0,0,0,2.56Z"/><path class="cls-1" d="M210.08,117.76a1.28,1.28,0,1,0,0-2.56,1.28,1.28,0,1,0,0,2.56Z"/><path class="cls-1" d="M224.48,117.76a1.28,1.28,0,1,0,0-2.56,1.28,1.28,0,1,0,0,2.56Z"/><path class="cls-1" d="M238.88,117.76a1.28,1.28,0,0,0,0-2.56,1.28,1.28,0,0,0,0,2.56Z"/><path class="cls-1" d="M253.28,117.76a1.28,1.28,0,0,0,0-2.56,1.28,1.28,0,1,0,0,2.56Z"/><path class="cls-1" d="M267.68,117.76a1.28,1.28,0,0,0,0-2.56,1.28,1.28,0,0,0,0,2.56Z"/><path class="cls-1" d="M282.08,117.76a1.28,1.28,0,1,0,0-2.56,1.28,1.28,0,1,0,0,2.56Z"/><path class="cls-1" d="M296.48,117.76a1.28,1.28,0,0,0,0-2.56,1.28,1.28,0,0,0,0,2.56Z"/><path class="cls-1" d="M310.88,117.76a1.28,1.28,0,1,0,0-2.56,1.28,1.28,0,1,0,0,2.56Z"/><path class="cls-1" d="M1.28,132.16a1.28,1.28,0,1,0,0-2.56,1.28,1.28,0,1,0,0,2.56Z"/><path class="cls-1" d="M15.68,132.16a1.28,1.28,0,1,0,0-2.56,1.28,1.28,0,1,0,0,2.56Z"/><path class="cls-1" d="M30.08,132.16a1.28,1.28,0,1,0,0-2.56,1.28,1.28,0,1,0,0,2.56Z"/><path class="cls-1" d="M44.48,132.16a1.28,1.28,0,1,0,0-2.56,1.28,1.28,0,1,0,0,2.56Z"/><path class="cls-1" d="M58.88,132.16a1.28,1.28,0,0,0,0-2.56,1.28,1.28,0,1,0,0,2.56Z"/><path class="cls-1" d="M73.28,132.16a1.28,1.28,0,1,0,0-2.56,1.28,1.28,0,1,0,0,2.56Z"/><path class="cls-1" d="M87.68,132.16a1.28,1.28,0,0,0,0-2.56,1.28,1.28,0,0,0,0,2.56Z"/><path class="cls-1" d="M102.08,132.16a1.28,1.28,0,1,0,0-2.56,1.28,1.28,0,1,0,0,2.56Z"/><path class="cls-1" d="M116.48,132.16a1.28,1.28,0,1,0,0-2.56,1.28,1.28,0,1,0,0,2.56Z"/><path class="cls-1" d="M130.88,132.16a1.28,1.28,0,0,0,0-2.56,1.28,1.28,0,0,0,0,2.56Z"/><path class="cls-1" d="M145.28,132.16a1.28,1.28,0,1,0,0-2.56,1.28,1.28,0,1,0,0,2.56Z"/><path class="cls-1" d="M159.68,132.16a1.28,1.28,0,0,0,0-2.56,1.28,1.28,0,0,0,0,2.56Z"/><path class="cls-1" d="M174.08,132.16a1.28,1.28,0,1,0,0-2.56,1.28,1.28,0,1,0,0,2.56Z"/><path class="cls-1" d="M188.48,132.16a1.28,1.28,0,1,0,0-2.56,1.28,1.28,0,1,0,0,2.56Z"/><path class="cls-1" d="M202.88,132.16a1.28,1.28,0,0,0,0-2.56,1.28,1.28,0,0,0,0,2.56Z"/><path class="cls-1" d="M217.28,132.16a1.28,1.28,0,1,0,0-2.56,1.28,1.28,0,1,0,0,2.56Z"/><path class="cls-1" d="M231.68,132.16a1.28,1.28,0,0,0,0-2.56,1.28,1.28,0,0,0,0,2.56Z"/><path class="cls-1" d="M246.08,132.16a1.28,1.28,0,1,0,0-2.56,1.28,1.28,0,1,0,0,2.56Z"/><path class="cls-1" d="M260.48,132.16a1.28,1.28,0,0,0,0-2.56,1.28,1.28,0,0,0,0,2.56Z"/><path class="cls-1" d="M274.88,132.16a1.28,1.28,0,1,0,0-2.56,1.28,1.28,0,1,0,0,2.56Z"/><path class="cls-1" d="M289.28,132.16a1.28,1.28,0,1,0,0-2.56,1.28,1.28,0,1,0,0,2.56Z"/><path class="cls-1" d="M303.68,132.16a1.28,1.28,0,0,0,0-2.56,1.28,1.28,0,0,0,0,2.56Z"/><path class="cls-1" d="M8.48,146.56a1.28,1.28,0,0,0,0-2.56,1.28,1.28,0,0,0,0,2.56Z"/><path class="cls-1" d="M22.88,146.56a1.28,1.28,0,0,0,0-2.56,1.28,1.28,0,1,0,0,2.56Z"/><path class="cls-1" d="M37.28,146.56a1.28,1.28,0,0,0,0-2.56,1.28,1.28,0,0,0,0,2.56Z"/><circle class="cls-1" cx="51.68" cy="145.28" r="1.28"/><path class="cls-1" d="M66.08,146.56a1.28,1.28,0,0,0,0-2.56,1.28,1.28,0,0,0,0,2.56Z"/><path class="cls-1" d="M80.48,146.56a1.28,1.28,0,0,0,0-2.56,1.28,1.28,0,0,0,0,2.56Z"/><path class="cls-1" d="M94.88,146.56a1.28,1.28,0,0,0,0-2.56,1.28,1.28,0,0,0,0,2.56Z"/><path class="cls-1" d="M109.28,146.56a1.28,1.28,0,0,0,0-2.56,1.28,1.28,0,0,0,0,2.56Z"/><circle class="cls-1" cx="123.68" cy="145.28" r="1.28"/><path class="cls-1" d="M138.08,146.56a1.28,1.28,0,0,0,0-2.56,1.28,1.28,0,0,0,0,2.56Z"/><path class="cls-1" d="M152.48,146.56a1.28,1.28,0,0,0,0-2.56,1.28,1.28,0,0,0,0,2.56Z"/><path class="cls-1" d="M166.88,146.56a1.28,1.28,0,0,0,0-2.56,1.28,1.28,0,0,0,0,2.56Z"/><path class="cls-1" d="M181.28,146.56a1.28,1.28,0,0,0,0-2.56,1.28,1.28,0,0,0,0,2.56Z"/><circle class="cls-1" cx="195.68" cy="145.28" r="1.28"/><path class="cls-1" d="M210.08,146.56a1.28,1.28,0,0,0,0-2.56,1.28,1.28,0,0,0,0,2.56Z"/><path class="cls-1" d="M224.48,146.56a1.28,1.28,0,0,0,0-2.56,1.28,1.28,0,0,0,0,2.56Z"/><path class="cls-1" d="M238.88,146.56a1.28,1.28,0,0,0,0-2.56,1.28,1.28,0,0,0,0,2.56Z"/><path class="cls-1" d="M253.28,146.56a1.28,1.28,0,0,0,0-2.56,1.28,1.28,0,0,0,0,2.56Z"/><circle class="cls-1" cx="267.68" cy="145.28" r="1.28"/><path class="cls-1" d="M282.08,146.56a1.28,1.28,0,1,0,0-2.56,1.28,1.28,0,1,0,0,2.56Z"/><path class="cls-1" d="M296.48,146.56a1.28,1.28,0,0,0,0-2.56,1.28,1.28,0,0,0,0,2.56Z"/><path class="cls-1" d="M310.88,146.56a1.28,1.28,0,1,0,0-2.56,1.28,1.28,0,1,0,0,2.56Z"/><path class="cls-1" d="M1.28,161a1.28,1.28,0,1,0,0-2.56,1.28,1.28,0,1,0,0,2.56Z"/><circle class="cls-1" cx="15.68" cy="159.68" r="1.28"/><path class="cls-1" d="M30.08,161a1.28,1.28,0,1,0,0-2.56,1.28,1.28,0,1,0,0,2.56Z"/><path class="cls-1" d="M44.48,161a1.28,1.28,0,1,0,0-2.56,1.28,1.28,0,1,0,0,2.56Z"/><path class="cls-1" d="M58.88,161a1.28,1.28,0,0,0,0-2.56,1.28,1.28,0,1,0,0,2.56Z"/><path class="cls-1" d="M73.28,161a1.28,1.28,0,1,0,0-2.56,1.28,1.28,0,1,0,0,2.56Z"/><circle class="cls-1" cx="87.68" cy="159.68" r="1.28"/><path class="cls-1" d="M102.08,161a1.28,1.28,0,0,0,0-2.56,1.28,1.28,0,1,0,0,2.56Z"/><path class="cls-1" d="M116.48,161a1.28,1.28,0,1,0,0-2.56,1.28,1.28,0,1,0,0,2.56Z"/><path class="cls-1" d="M130.88,161a1.28,1.28,0,0,0,0-2.56,1.28,1.28,0,0,0,0,2.56Z"/><path class="cls-1" d="M145.28,161a1.28,1.28,0,1,0,0-2.56,1.28,1.28,0,1,0,0,2.56Z"/><circle class="cls-1" cx="159.68" cy="159.68" r="1.28"/><path class="cls-1" d="M174.08,161a1.28,1.28,0,1,0,0-2.56,1.28,1.28,0,1,0,0,2.56Z"/><path class="cls-1" d="M188.48,161a1.28,1.28,0,1,0,0-2.56,1.28,1.28,0,1,0,0,2.56Z"/><path class="cls-1" d="M202.88,161a1.28,1.28,0,0,0,0-2.56,1.28,1.28,0,0,0,0,2.56Z"/><path class="cls-1" d="M217.28,161a1.28,1.28,0,1,0,0-2.56,1.28,1.28,0,1,0,0,2.56Z"/><circle class="cls-1" cx="231.68" cy="159.68" r="1.28"/><path class="cls-1" d="M246.08,161a1.28,1.28,0,1,0,0-2.56,1.28,1.28,0,1,0,0,2.56Z"/><path class="cls-1" d="M260.48,161a1.28,1.28,0,0,0,0-2.56,1.28,1.28,0,0,0,0,2.56Z"/><path class="cls-1" d="M274.88,161a1.28,1.28,0,1,0,0-2.56,1.28,1.28,0,1,0,0,2.56Z"/><path class="cls-1" d="M289.28,161a1.28,1.28,0,1,0,0-2.56,1.28,1.28,0,1,0,0,2.56Z"/><circle class="cls-1" cx="303.68" cy="159.68" r="1.28"/><path class="cls-1" d="M8.48,175.36a1.28,1.28,0,0,0,0-2.56,1.28,1.28,0,0,0,0,2.56Z"/><path class="cls-1" d="M22.88,175.36a1.28,1.28,0,0,0,0-2.56,1.28,1.28,0,1,0,0,2.56Z"/><path class="cls-1" d="M37.28,175.36a1.28,1.28,0,0,0,0-2.56,1.28,1.28,0,0,0,0,2.56Z"/><path class="cls-1" d="M51.68,175.36a1.28,1.28,0,0,0,0-2.56,1.28,1.28,0,0,0,0,2.56Z"/><path class="cls-1" d="M66.08,175.36a1.28,1.28,0,0,0,0-2.56,1.28,1.28,0,0,0,0,2.56Z"/><path class="cls-1" d="M80.48,175.36a1.28,1.28,0,0,0,0-2.56,1.28,1.28,0,0,0,0,2.56Z"/><path class="cls-1" d="M94.88,175.36a1.28,1.28,0,0,0,0-2.56,1.28,1.28,0,0,0,0,2.56Z"/><path class="cls-1" d="M109.28,175.36a1.28,1.28,0,0,0,0-2.56,1.28,1.28,0,0,0,0,2.56Z"/><path class="cls-1" d="M123.68,175.36a1.28,1.28,0,0,0,0-2.56,1.28,1.28,0,0,0,0,2.56Z"/><path class="cls-1" d="M138.08,175.36a1.28,1.28,0,0,0,0-2.56,1.28,1.28,0,0,0,0,2.56Z"/><path class="cls-1" d="M152.48,175.36a1.28,1.28,0,0,0,0-2.56,1.28,1.28,0,0,0,0,2.56Z"/><path class="cls-1" d="M166.88,175.36a1.28,1.28,0,0,0,0-2.56,1.28,1.28,0,0,0,0,2.56Z"/><path class="cls-1" d="M181.28,175.36a1.28,1.28,0,0,0,0-2.56,1.28,1.28,0,0,0,0,2.56Z"/><path class="cls-1" d="M195.68,175.36a1.28,1.28,0,0,0,0-2.56,1.28,1.28,0,0,0,0,2.56Z"/><path class="cls-1" d="M210.08,175.36a1.28,1.28,0,0,0,0-2.56,1.28,1.28,0,0,0,0,2.56Z"/><path class="cls-1" d="M224.48,175.36a1.28,1.28,0,0,0,0-2.56,1.28,1.28,0,0,0,0,2.56Z"/><path class="cls-1" d="M238.88,175.36a1.28,1.28,0,0,0,0-2.56,1.28,1.28,0,0,0,0,2.56Z"/><path class="cls-1" d="M253.28,175.36a1.28,1.28,0,0,0,0-2.56,1.28,1.28,0,0,0,0,2.56Z"/><path class="cls-1" d="M267.68,175.36a1.28,1.28,0,0,0,0-2.56,1.28,1.28,0,0,0,0,2.56Z"/><path class="cls-1" d="M282.08,175.36a1.28,1.28,0,1,0,0-2.56,1.28,1.28,0,1,0,0,2.56Z"/><path class="cls-1" d="M296.48,175.36a1.28,1.28,0,0,0,0-2.56,1.28,1.28,0,0,0,0,2.56Z"/><path class="cls-1" d="M310.88,175.36a1.28,1.28,0,1,0,0-2.56,1.28,1.28,0,1,0,0,2.56Z"/><path class="cls-1" d="M1.28,189.76a1.28,1.28,0,0,0,0-2.56,1.28,1.28,0,0,0,0,2.56Z"/><path class="cls-1" d="M15.68,189.76a1.28,1.28,0,0,0,0-2.56,1.28,1.28,0,0,0,0,2.56Z"/><path class="cls-1" d="M30.08,189.76a1.28,1.28,0,0,0,0-2.56,1.28,1.28,0,1,0,0,2.56Z"/><path class="cls-1" d="M44.48,189.76a1.28,1.28,0,0,0,0-2.56,1.28,1.28,0,1,0,0,2.56Z"/><path class="cls-1" d="M58.88,189.76a1.28,1.28,0,0,0,0-2.56,1.28,1.28,0,0,0,0,2.56Z"/><path class="cls-1" d="M73.28,189.76a1.28,1.28,0,0,0,0-2.56,1.28,1.28,0,0,0,0,2.56Z"/><path class="cls-1" d="M87.68,189.76a1.28,1.28,0,0,0,0-2.56,1.28,1.28,0,0,0,0,2.56Z"/><path class="cls-1" d="M102.08,189.76a1.28,1.28,0,0,0,0-2.56,1.28,1.28,0,0,0,0,2.56Z"/><path class="cls-1" d="M116.48,189.76a1.28,1.28,0,0,0,0-2.56,1.28,1.28,0,0,0,0,2.56Z"/><path class="cls-1" d="M130.88,189.76a1.28,1.28,0,0,0,0-2.56,1.28,1.28,0,0,0,0,2.56Z"/><path class="cls-1" d="M145.28,189.76a1.28,1.28,0,0,0,0-2.56,1.28,1.28,0,0,0,0,2.56Z"/><path class="cls-1" d="M159.68,189.76a1.28,1.28,0,0,0,0-2.56,1.28,1.28,0,0,0,0,2.56Z"/><path class="cls-1" d="M174.08,189.76a1.28,1.28,0,0,0,0-2.56,1.28,1.28,0,0,0,0,2.56Z"/><path class="cls-1" d="M188.48,189.76a1.28,1.28,0,0,0,0-2.56,1.28,1.28,0,0,0,0,2.56Z"/><path class="cls-1" d="M202.88,189.76a1.28,1.28,0,0,0,0-2.56,1.28,1.28,0,0,0,0,2.56Z"/><path class="cls-1" d="M217.28,189.76a1.28,1.28,0,0,0,0-2.56,1.28,1.28,0,0,0,0,2.56Z"/><path class="cls-1" d="M231.68,189.76a1.28,1.28,0,0,0,0-2.56,1.28,1.28,0,0,0,0,2.56Z"/><path class="cls-1" d="M246.08,189.76a1.28,1.28,0,0,0,0-2.56,1.28,1.28,0,0,0,0,2.56Z"/><path class="cls-1" d="M260.48,189.76a1.28,1.28,0,0,0,0-2.56,1.28,1.28,0,0,0,0,2.56Z"/><path class="cls-1" d="M274.88,189.76a1.28,1.28,0,1,0,0-2.56,1.28,1.28,0,1,0,0,2.56Z"/><path class="cls-1" d="M289.28,189.76a1.28,1.28,0,1,0,0-2.56,1.28,1.28,0,1,0,0,2.56Z"/><path class="cls-1" d="M303.68,189.76a1.28,1.28,0,0,0,0-2.56,1.28,1.28,0,0,0,0,2.56Z"/><path class="cls-1" d="M8.48,204.16a1.28,1.28,0,0,0,0-2.56,1.28,1.28,0,1,0,0,2.56Z"/><path class="cls-1" d="M22.88,204.16a1.28,1.28,0,1,0,0-2.56,1.28,1.28,0,1,0,0,2.56Z"/><path class="cls-1" d="M37.28,204.16a1.28,1.28,0,1,0,0-2.56,1.28,1.28,0,1,0,0,2.56Z"/><path class="cls-1" d="M51.68,204.16a1.28,1.28,0,1,0,0-2.56,1.28,1.28,0,1,0,0,2.56Z"/><path class="cls-1" d="M66.08,204.16a1.28,1.28,0,1,0,0-2.56,1.28,1.28,0,1,0,0,2.56Z"/><path class="cls-1" d="M80.48,204.16a1.28,1.28,0,1,0,0-2.56,1.28,1.28,0,0,0,0,2.56Z"/><path class="cls-1" d="M94.88,204.16a1.28,1.28,0,0,0,0-2.56,1.28,1.28,0,0,0,0,2.56Z"/><path class="cls-1" d="M109.28,204.16a1.28,1.28,0,1,0,0-2.56,1.28,1.28,0,1,0,0,2.56Z"/><path class="cls-1" d="M123.68,204.16a1.28,1.28,0,0,0,0-2.56,1.28,1.28,0,0,0,0,2.56Z"/><path class="cls-1" d="M138.08,204.16a1.28,1.28,0,1,0,0-2.56,1.28,1.28,0,1,0,0,2.56Z"/><path class="cls-1" d="M152.48,204.16a1.28,1.28,0,1,0,0-2.56,1.28,1.28,0,1,0,0,2.56Z"/><path class="cls-1" d="M166.88,204.16a1.28,1.28,0,0,0,0-2.56,1.28,1.28,0,0,0,0,2.56Z"/><path class="cls-1" d="M181.28,204.16a1.28,1.28,0,1,0,0-2.56,1.28,1.28,0,1,0,0,2.56Z"/><path class="cls-1" d="M195.68,204.16a1.28,1.28,0,0,0,0-2.56,1.28,1.28,0,0,0,0,2.56Z"/><path class="cls-1" d="M210.08,204.16a1.28,1.28,0,1,0,0-2.56,1.28,1.28,0,1,0,0,2.56Z"/><path class="cls-1" d="M224.48,204.16a1.28,1.28,0,1,0,0-2.56,1.28,1.28,0,1,0,0,2.56Z"/><path class="cls-1" d="M238.88,204.16a1.28,1.28,0,0,0,0-2.56,1.28,1.28,0,0,0,0,2.56Z"/><path class="cls-1" d="M253.28,204.16a1.28,1.28,0,1,0,0-2.56,1.28,1.28,0,1,0,0,2.56Z"/><path class="cls-1" d="M267.68,204.16a1.28,1.28,0,0,0,0-2.56,1.28,1.28,0,0,0,0,2.56Z"/><path class="cls-1" d="M282.08,204.16a1.28,1.28,0,1,0,0-2.56,1.28,1.28,0,1,0,0,2.56Z"/><path class="cls-1" d="M296.48,204.16a1.28,1.28,0,0,0,0-2.56,1.28,1.28,0,0,0,0,2.56Z"/><path class="cls-1" d="M310.88,204.16a1.28,1.28,0,1,0,0-2.56,1.28,1.28,0,1,0,0,2.56Z"/><path class="cls-1" d="M1.28,218.56a1.28,1.28,0,0,0,0-2.56,1.28,1.28,0,0,0,0,2.56Z"/><circle class="cls-1" cx="15.68" cy="217.28" r="1.28"/><path class="cls-1" d="M30.08,218.56a1.28,1.28,0,0,0,0-2.56,1.28,1.28,0,1,0,0,2.56Z"/><path class="cls-1" d="M44.48,218.56a1.28,1.28,0,0,0,0-2.56,1.28,1.28,0,1,0,0,2.56Z"/><path class="cls-1" d="M58.88,218.56a1.28,1.28,0,0,0,0-2.56,1.28,1.28,0,0,0,0,2.56Z"/><path class="cls-1" d="M73.28,218.56a1.28,1.28,0,0,0,0-2.56,1.28,1.28,0,0,0,0,2.56Z"/><circle class="cls-1" cx="87.68" cy="217.28" r="1.28"/><path class="cls-1" d="M102.08,218.56a1.28,1.28,0,0,0,0-2.56,1.28,1.28,0,0,0,0,2.56Z"/><path class="cls-1" d="M116.48,218.56a1.28,1.28,0,0,0,0-2.56,1.28,1.28,0,0,0,0,2.56Z"/><path class="cls-1" d="M130.88,218.56a1.28,1.28,0,0,0,0-2.56,1.28,1.28,0,0,0,0,2.56Z"/><path class="cls-1" d="M145.28,218.56a1.28,1.28,0,0,0,0-2.56,1.28,1.28,0,0,0,0,2.56Z"/><circle class="cls-1" cx="159.68" cy="217.28" r="1.28"/><path class="cls-1" d="M174.08,218.56a1.28,1.28,0,0,0,0-2.56,1.28,1.28,0,0,0,0,2.56Z"/><path class="cls-1" d="M188.48,218.56a1.28,1.28,0,0,0,0-2.56,1.28,1.28,0,0,0,0,2.56Z"/><path class="cls-1" d="M202.88,218.56a1.28,1.28,0,0,0,0-2.56,1.28,1.28,0,0,0,0,2.56Z"/><path class="cls-1" d="M217.28,218.56a1.28,1.28,0,0,0,0-2.56,1.28,1.28,0,0,0,0,2.56Z"/><circle class="cls-1" cx="231.68" cy="217.28" r="1.28"/><path class="cls-1" d="M246.08,218.56a1.28,1.28,0,0,0,0-2.56,1.28,1.28,0,0,0,0,2.56Z"/><path class="cls-1" d="M260.48,218.56a1.28,1.28,0,0,0,0-2.56,1.28,1.28,0,0,0,0,2.56Z"/><path class="cls-1" d="M274.88,218.56a1.28,1.28,0,1,0,0-2.56,1.28,1.28,0,1,0,0,2.56Z"/><path class="cls-1" d="M289.28,218.56a1.28,1.28,0,1,0,0-2.56,1.28,1.28,0,1,0,0,2.56Z"/><circle class="cls-1" cx="303.68" cy="217.28" r="1.28"/><path class="cls-1" d="M8.48,233a1.28,1.28,0,0,0,0-2.56,1.28,1.28,0,1,0,0,2.56Z"/><path class="cls-1" d="M22.88,233a1.28,1.28,0,1,0,0-2.56,1.28,1.28,0,1,0,0,2.56Z"/><path class="cls-1" d="M37.28,233a1.28,1.28,0,1,0,0-2.56,1.28,1.28,0,1,0,0,2.56Z"/><circle class="cls-1" cx="51.68" cy="231.68" r="1.28"/><path class="cls-1" d="M66.08,233a1.28,1.28,0,0,0,0-2.56,1.28,1.28,0,1,0,0,2.56Z"/><path class="cls-1" d="M80.48,233a1.28,1.28,0,1,0,0-2.56,1.28,1.28,0,1,0,0,2.56Z"/><path class="cls-1" d="M94.88,233a1.28,1.28,0,0,0,0-2.56,1.28,1.28,0,0,0,0,2.56Z"/><path class="cls-1" d="M109.28,233a1.28,1.28,0,1,0,0-2.56,1.28,1.28,0,1,0,0,2.56Z"/><circle class="cls-1" cx="123.68" cy="231.68" r="1.28"/><path class="cls-1" d="M138.08,233a1.28,1.28,0,1,0,0-2.56,1.28,1.28,0,1,0,0,2.56Z"/><path class="cls-1" d="M152.48,233a1.28,1.28,0,1,0,0-2.56,1.28,1.28,0,1,0,0,2.56Z"/><path class="cls-1" d="M166.88,233a1.28,1.28,0,0,0,0-2.56,1.28,1.28,0,0,0,0,2.56Z"/><path class="cls-1" d="M181.28,233a1.28,1.28,0,1,0,0-2.56,1.28,1.28,0,1,0,0,2.56Z"/><circle class="cls-1" cx="195.68" cy="231.68" r="1.28"/><path class="cls-1" d="M210.08,233a1.28,1.28,0,1,0,0-2.56,1.28,1.28,0,1,0,0,2.56Z"/><path class="cls-1" d="M224.48,233a1.28,1.28,0,1,0,0-2.56,1.28,1.28,0,1,0,0,2.56Z"/><path class="cls-1" d="M238.88,233a1.28,1.28,0,0,0,0-2.56,1.28,1.28,0,0,0,0,2.56Z"/><path class="cls-1" d="M253.28,233a1.28,1.28,0,1,0,0-2.56,1.28,1.28,0,1,0,0,2.56Z"/><circle class="cls-1" cx="267.68" cy="231.68" r="1.28"/><path class="cls-1" d="M282.08,233a1.28,1.28,0,1,0,0-2.56,1.28,1.28,0,1,0,0,2.56Z"/><path class="cls-1" d="M296.48,233a1.28,1.28,0,0,0,0-2.56,1.28,1.28,0,0,0,0,2.56Z"/><path class="cls-1" d="M310.88,233a1.28,1.28,0,1,0,0-2.56,1.28,1.28,0,1,0,0,2.56Z"/><path class="cls-1" d="M1.28,247.36a1.28,1.28,0,0,0,0-2.56,1.28,1.28,0,0,0,0,2.56Z"/><path class="cls-1" d="M15.68,247.36a1.28,1.28,0,0,0,0-2.56,1.28,1.28,0,1,0,0,2.56Z"/><path class="cls-1" d="M30.08,247.36a1.28,1.28,0,0,0,0-2.56,1.28,1.28,0,1,0,0,2.56Z"/><path class="cls-1" d="M44.48,247.36a1.28,1.28,0,0,0,0-2.56,1.28,1.28,0,1,0,0,2.56Z"/><path class="cls-1" d="M58.88,247.36a1.28,1.28,0,0,0,0-2.56,1.28,1.28,0,0,0,0,2.56Z"/><path class="cls-1" d="M73.28,247.36a1.28,1.28,0,0,0,0-2.56,1.28,1.28,0,0,0,0,2.56Z"/><path class="cls-1" d="M87.68,247.36a1.28,1.28,0,0,0,0-2.56,1.28,1.28,0,0,0,0,2.56Z"/><path class="cls-1" d="M102.08,247.36a1.28,1.28,0,0,0,0-2.56,1.28,1.28,0,0,0,0,2.56Z"/><path class="cls-1" d="M116.48,247.36a1.28,1.28,0,0,0,0-2.56,1.28,1.28,0,0,0,0,2.56Z"/><path class="cls-1" d="M130.88,247.36a1.28,1.28,0,0,0,0-2.56,1.28,1.28,0,0,0,0,2.56Z"/><path class="cls-1" d="M145.28,247.36a1.28,1.28,0,0,0,0-2.56,1.28,1.28,0,0,0,0,2.56Z"/><path class="cls-1" d="M159.68,247.36a1.28,1.28,0,0,0,0-2.56,1.28,1.28,0,0,0,0,2.56Z"/><path class="cls-1" d="M174.08,247.36a1.28,1.28,0,0,0,0-2.56,1.28,1.28,0,0,0,0,2.56Z"/><path class="cls-1" d="M188.48,247.36a1.28,1.28,0,0,0,0-2.56,1.28,1.28,0,0,0,0,2.56Z"/><path class="cls-1" d="M202.88,247.36a1.28,1.28,0,0,0,0-2.56,1.28,1.28,0,0,0,0,2.56Z"/><path class="cls-1" d="M217.28,247.36a1.28,1.28,0,0,0,0-2.56,1.28,1.28,0,0,0,0,2.56Z"/><path class="cls-1" d="M231.68,247.36a1.28,1.28,0,0,0,0-2.56,1.28,1.28,0,0,0,0,2.56Z"/><path class="cls-1" d="M246.08,247.36a1.28,1.28,0,0,0,0-2.56,1.28,1.28,0,0,0,0,2.56Z"/><path class="cls-1" d="M260.48,247.36a1.28,1.28,0,0,0,0-2.56,1.28,1.28,0,0,0,0,2.56Z"/><path class="cls-1" d="M274.88,247.36a1.28,1.28,0,1,0,0-2.56,1.28,1.28,0,1,0,0,2.56Z"/><path class="cls-1" d="M289.28,247.36a1.28,1.28,0,1,0,0-2.56,1.28,1.28,0,1,0,0,2.56Z"/><path class="cls-1" d="M303.68,247.36a1.28,1.28,0,0,0,0-2.56,1.28,1.28,0,0,0,0,2.56Z"/><path class="cls-1" d="M8.48,261.76a1.28,1.28,0,0,0,0-2.56,1.28,1.28,0,0,0,0,2.56Z"/><path class="cls-1" d="M22.88,261.76a1.28,1.28,0,0,0,0-2.56,1.28,1.28,0,0,0,0,2.56Z"/><path class="cls-1" d="M37.28,261.76a1.28,1.28,0,0,0,0-2.56,1.28,1.28,0,0,0,0,2.56Z"/><path class="cls-1" d="M51.68,261.76a1.28,1.28,0,0,0,0-2.56,1.28,1.28,0,0,0,0,2.56Z"/><path class="cls-1" d="M66.08,261.76a1.28,1.28,0,0,0,0-2.56,1.28,1.28,0,0,0,0,2.56Z"/><path class="cls-1" d="M80.48,261.76a1.28,1.28,0,0,0,0-2.56,1.28,1.28,0,0,0,0,2.56Z"/><path class="cls-1" d="M94.88,261.76a1.28,1.28,0,0,0,0-2.56,1.28,1.28,0,0,0,0,2.56Z"/><path class="cls-1" d="M109.28,261.76a1.28,1.28,0,0,0,0-2.56,1.28,1.28,0,0,0,0,2.56Z"/><path class="cls-1" d="M123.68,261.76a1.28,1.28,0,1,0,0-2.56,1.28,1.28,0,0,0,0,2.56Z"/><path class="cls-1" d="M138.08,261.76a1.28,1.28,0,0,0,0-2.56,1.28,1.28,0,0,0,0,2.56Z"/><path class="cls-1" d="M152.48,261.76a1.28,1.28,0,0,0,0-2.56,1.28,1.28,0,0,0,0,2.56Z"/><path class="cls-1" d="M166.88,261.76a1.28,1.28,0,0,0,0-2.56,1.28,1.28,0,0,0,0,2.56Z"/><path class="cls-1" d="M181.28,261.76a1.28,1.28,0,0,0,0-2.56,1.28,1.28,0,0,0,0,2.56Z"/><path class="cls-1" d="M195.68,261.76a1.28,1.28,0,0,0,0-2.56,1.28,1.28,0,0,0,0,2.56Z"/><path class="cls-1" d="M210.08,261.76a1.28,1.28,0,0,0,0-2.56,1.28,1.28,0,0,0,0,2.56Z"/><path class="cls-1" d="M224.48,261.76a1.28,1.28,0,0,0,0-2.56,1.28,1.28,0,0,0,0,2.56Z"/><path class="cls-1" d="M238.88,261.76a1.28,1.28,0,0,0,0-2.56,1.28,1.28,0,0,0,0,2.56Z"/><path class="cls-1" d="M253.28,261.76a1.28,1.28,0,0,0,0-2.56,1.28,1.28,0,0,0,0,2.56Z"/><path class="cls-1" d="M267.68,261.76a1.28,1.28,0,0,0,0-2.56,1.28,1.28,0,0,0,0,2.56Z"/><path class="cls-1" d="M282.08,261.76a1.28,1.28,0,1,0,0-2.56,1.28,1.28,0,1,0,0,2.56Z"/><path class="cls-1" d="M296.48,261.76a1.28,1.28,0,0,0,0-2.56,1.28,1.28,0,0,0,0,2.56Z"/><path class="cls-1" d="M310.88,261.76a1.28,1.28,0,1,0,0-2.56,1.28,1.28,0,1,0,0,2.56Z"/><path class="cls-1" d="M1.28,276.16a1.28,1.28,0,1,0,0-2.56,1.28,1.28,0,1,0,0,2.56Z"/><path class="cls-1" d="M15.68,276.16a1.28,1.28,0,1,0,0-2.56,1.28,1.28,0,1,0,0,2.56Z"/><path class="cls-1" d="M30.08,276.16a1.28,1.28,0,1,0,0-2.56,1.28,1.28,0,1,0,0,2.56Z"/><path class="cls-1" d="M44.48,276.16a1.28,1.28,0,1,0,0-2.56,1.28,1.28,0,1,0,0,2.56Z"/><path class="cls-1" d="M58.88,276.16a1.28,1.28,0,1,0,0-2.56,1.28,1.28,0,1,0,0,2.56Z"/><path class="cls-1" d="M73.28,276.16a1.28,1.28,0,1,0,0-2.56,1.28,1.28,0,1,0,0,2.56Z"/><path class="cls-1" d="M87.68,276.16a1.28,1.28,0,1,0,0-2.56,1.28,1.28,0,1,0,0,2.56Z"/><path class="cls-1" d="M102.08,276.16a1.28,1.28,0,1,0,0-2.56,1.28,1.28,0,1,0,0,2.56Z"/><path class="cls-1" d="M116.48,276.16a1.28,1.28,0,1,0,0-2.56,1.28,1.28,0,1,0,0,2.56Z"/><path class="cls-1" d="M130.88,276.16a1.28,1.28,0,1,0,0-2.56,1.28,1.28,0,1,0,0,2.56Z"/><path class="cls-1" d="M145.28,276.16a1.28,1.28,0,1,0,0-2.56,1.28,1.28,0,1,0,0,2.56Z"/><path class="cls-1" d="M159.68,276.16a1.28,1.28,0,1,0,0-2.56,1.28,1.28,0,1,0,0,2.56Z"/><path class="cls-1" d="M174.08,276.16a1.28,1.28,0,1,0,0-2.56,1.28,1.28,0,1,0,0,2.56Z"/><path class="cls-1" d="M188.48,276.16a1.28,1.28,0,1,0,0-2.56,1.28,1.28,0,1,0,0,2.56Z"/><path class="cls-1" d="M202.88,276.16a1.28,1.28,0,1,0,0-2.56,1.28,1.28,0,1,0,0,2.56Z"/><path class="cls-1" d="M217.28,276.16a1.28,1.28,0,1,0,0-2.56,1.28,1.28,0,1,0,0,2.56Z"/><path class="cls-1" d="M231.68,276.16a1.28,1.28,0,1,0,0-2.56,1.28,1.28,0,1,0,0,2.56Z"/><path class="cls-1" d="M246.08,276.16a1.28,1.28,0,1,0,0-2.56,1.28,1.28,0,1,0,0,2.56Z"/><path class="cls-1" d="M260.48,276.16a1.28,1.28,0,0,0,0-2.56,1.28,1.28,0,0,0,0,2.56Z"/><path class="cls-1" d="M274.88,276.16a1.28,1.28,0,1,0,0-2.56,1.28,1.28,0,1,0,0,2.56Z"/><path class="cls-1" d="M289.28,276.16a1.28,1.28,0,1,0,0-2.56,1.28,1.28,0,1,0,0,2.56Z"/><path class="cls-1" d="M303.68,276.16a1.28,1.28,0,0,0,0-2.56,1.28,1.28,0,0,0,0,2.56Z"/><path class="cls-1" d="M8.48,290.56a1.28,1.28,0,0,0,0-2.56,1.28,1.28,0,1,0,0,2.56Z"/><path class="cls-1" d="M22.88,290.56a1.28,1.28,0,1,0,0-2.56,1.28,1.28,0,1,0,0,2.56Z"/><path class="cls-1" d="M37.28,290.56a1.28,1.28,0,1,0,0-2.56,1.28,1.28,0,1,0,0,2.56Z"/><circle class="cls-1" cx="51.68" cy="289.28" r="1.28"/><path class="cls-1" d="M66.08,290.56a1.28,1.28,0,1,0,0-2.56,1.28,1.28,0,1,0,0,2.56Z"/><path class="cls-1" d="M80.48,290.56a1.28,1.28,0,1,0,0-2.56,1.28,1.28,0,1,0,0,2.56Z"/><path class="cls-1" d="M94.88,290.56a1.28,1.28,0,1,0,0-2.56,1.28,1.28,0,1,0,0,2.56Z"/><path class="cls-1" d="M109.28,290.56a1.28,1.28,0,1,0,0-2.56,1.28,1.28,0,1,0,0,2.56Z"/><circle class="cls-1" cx="123.68" cy="289.28" r="1.28"/><path class="cls-1" d="M138.08,290.56a1.28,1.28,0,1,0,0-2.56,1.28,1.28,0,1,0,0,2.56Z"/><path class="cls-1" d="M152.48,290.56a1.28,1.28,0,1,0,0-2.56,1.28,1.28,0,1,0,0,2.56Z"/><path class="cls-1" d="M166.88,290.56a1.28,1.28,0,1,0,0-2.56,1.28,1.28,0,1,0,0,2.56Z"/><path class="cls-1" d="M181.28,290.56a1.28,1.28,0,1,0,0-2.56,1.28,1.28,0,1,0,0,2.56Z"/><circle class="cls-1" cx="195.68" cy="289.28" r="1.28"/><path class="cls-1" d="M210.08,290.56a1.28,1.28,0,1,0,0-2.56,1.28,1.28,0,1,0,0,2.56Z"/><path class="cls-1" d="M224.48,290.56a1.28,1.28,0,1,0,0-2.56,1.28,1.28,0,1,0,0,2.56Z"/><path class="cls-1" d="M238.88,290.56a1.28,1.28,0,1,0,0-2.56,1.28,1.28,0,1,0,0,2.56Z"/><path class="cls-1" d="M253.28,290.56a1.28,1.28,0,1,0,0-2.56,1.28,1.28,0,1,0,0,2.56Z"/><circle class="cls-1" cx="267.68" cy="289.28" r="1.28"/><path class="cls-1" d="M282.08,290.56a1.28,1.28,0,1,0,0-2.56,1.28,1.28,0,1,0,0,2.56Z"/><path class="cls-1" d="M296.48,290.56a1.28,1.28,0,0,0,0-2.56,1.28,1.28,0,0,0,0,2.56Z"/><path class="cls-1" d="M310.88,290.56a1.28,1.28,0,1,0,0-2.56,1.28,1.28,0,1,0,0,2.56Z"/><path class="cls-1" d="M1.28,305a1.28,1.28,0,0,0,0-2.56,1.28,1.28,0,0,0,0,2.56Z"/><circle class="cls-1" cx="15.68" cy="303.68" r="1.28"/><path class="cls-1" d="M30.08,305a1.28,1.28,0,0,0,0-2.56,1.28,1.28,0,1,0,0,2.56Z"/><path class="cls-1" d="M44.48,305a1.28,1.28,0,0,0,0-2.56,1.28,1.28,0,1,0,0,2.56Z"/><path class="cls-1" d="M58.88,305a1.28,1.28,0,0,0,0-2.56,1.28,1.28,0,0,0,0,2.56Z"/><path class="cls-1" d="M73.28,305a1.28,1.28,0,0,0,0-2.56,1.28,1.28,0,0,0,0,2.56Z"/><circle class="cls-1" cx="87.68" cy="303.68" r="1.28"/><path class="cls-1" d="M102.08,305a1.28,1.28,0,0,0,0-2.56,1.28,1.28,0,0,0,0,2.56Z"/><path class="cls-1" d="M116.48,305a1.28,1.28,0,0,0,0-2.56,1.28,1.28,0,0,0,0,2.56Z"/><path class="cls-1" d="M130.88,305a1.28,1.28,0,0,0,0-2.56,1.28,1.28,0,0,0,0,2.56Z"/><path class="cls-1" d="M145.28,305a1.28,1.28,0,0,0,0-2.56,1.28,1.28,0,0,0,0,2.56Z"/><circle class="cls-1" cx="159.68" cy="303.68" r="1.28"/><path class="cls-1" d="M174.08,305a1.28,1.28,0,0,0,0-2.56,1.28,1.28,0,0,0,0,2.56Z"/><path class="cls-1" d="M188.48,305a1.28,1.28,0,0,0,0-2.56,1.28,1.28,0,0,0,0,2.56Z"/><path class="cls-1" d="M202.88,305a1.28,1.28,0,0,0,0-2.56,1.28,1.28,0,0,0,0,2.56Z"/><path class="cls-1" d="M217.28,305a1.28,1.28,0,0,0,0-2.56,1.28,1.28,0,0,0,0,2.56Z"/><circle class="cls-1" cx="231.68" cy="303.68" r="1.28"/><path class="cls-1" d="M246.08,305a1.28,1.28,0,0,0,0-2.56,1.28,1.28,0,0,0,0,2.56Z"/><path class="cls-1" d="M260.48,305a1.28,1.28,0,0,0,0-2.56,1.28,1.28,0,0,0,0,2.56Z"/><path class="cls-1" d="M274.88,305a1.28,1.28,0,1,0,0-2.56,1.28,1.28,0,1,0,0,2.56Z"/><path class="cls-1" d="M289.28,305a1.28,1.28,0,0,0,0-2.56,1.28,1.28,0,0,0,0,2.56Z"/><circle class="cls-1" cx="303.68" cy="303.68" r="1.28"/><path class="cls-1" d="M324.06,2.56a1.28,1.28,0,1,0-1.28-1.28A1.28,1.28,0,0,0,324.06,2.56Z"/><path class="cls-1" d="M338.46,2.56a1.28,1.28,0,1,0-1.28-1.28A1.28,1.28,0,0,0,338.46,2.56Z"/><path class="cls-1" d="M352.86,2.56a1.28,1.28,0,1,0-1.28-1.28A1.28,1.28,0,0,0,352.86,2.56Z"/><circle class="cls-1" cx="367.26" cy="1.28" r="1.28"/><path class="cls-1" d="M381.66,2.56a1.28,1.28,0,1,0-1.28-1.28A1.28,1.28,0,0,0,381.66,2.56Z"/><path class="cls-1" d="M396.06,2.56a1.28,1.28,0,1,0-1.28-1.28A1.28,1.28,0,0,0,396.06,2.56Z"/><path class="cls-1" d="M410.46,2.56a1.28,1.28,0,1,0-1.28-1.28A1.28,1.28,0,0,0,410.46,2.56Z"/><path class="cls-1" d="M424.86,2.56a1.28,1.28,0,1,0-1.28-1.28A1.28,1.28,0,0,0,424.86,2.56Z"/><circle class="cls-1" cx="439.26" cy="1.28" r="1.28"/><path class="cls-1" d="M453.66,2.56a1.28,1.28,0,1,0-1.28-1.28A1.28,1.28,0,0,0,453.66,2.56Z"/><path class="cls-1" d="M468.06,2.56a1.28,1.28,0,1,0-1.28-1.28A1.28,1.28,0,0,0,468.06,2.56Z"/><path class="cls-1" d="M482.46,2.56a1.28,1.28,0,1,0-1.28-1.28A1.28,1.28,0,0,0,482.46,2.56Z"/><path class="cls-1" d="M496.86,2.56a1.28,1.28,0,1,0-1.28-1.28A1.28,1.28,0,0,0,496.86,2.56Z"/><circle class="cls-1" cx="511.26" cy="1.28" r="1.28"/><path class="cls-1" d="M525.66,2.56a1.28,1.28,0,1,0-1.28-1.28A1.28,1.28,0,0,0,525.66,2.56Z"/><path class="cls-1" d="M316.86,17a1.28,1.28,0,1,0-1.28-1.28A1.28,1.28,0,0,0,316.86,17Z"/><circle class="cls-1" cx="331.26" cy="15.68" r="1.28"/><path class="cls-1" d="M345.66,17a1.28,1.28,0,1,0-1.28-1.28A1.28,1.28,0,0,0,345.66,17Z"/><path class="cls-1" d="M360.06,17a1.28,1.28,0,1,0-1.28-1.28A1.28,1.28,0,0,0,360.06,17Z"/><path class="cls-1" d="M374.46,17a1.28,1.28,0,1,0-1.28-1.28A1.28,1.28,0,0,0,374.46,17Z"/><path class="cls-1" d="M388.86,17a1.28,1.28,0,1,0-1.28-1.28A1.28,1.28,0,0,0,388.86,17Z"/><circle class="cls-1" cx="403.26" cy="15.68" r="1.28"/><path class="cls-1" d="M417.66,17a1.28,1.28,0,1,0-1.28-1.28A1.28,1.28,0,0,0,417.66,17Z"/><path class="cls-1" d="M432.06,17a1.28,1.28,0,1,0-1.28-1.28A1.28,1.28,0,0,0,432.06,17Z"/><path class="cls-1" d="M446.46,17a1.28,1.28,0,1,0-1.28-1.28A1.28,1.28,0,0,0,446.46,17Z"/><path class="cls-1" d="M460.86,17a1.28,1.28,0,1,0-1.28-1.28A1.28,1.28,0,0,0,460.86,17Z"/><circle class="cls-1" cx="475.26" cy="15.68" r="1.28"/><path class="cls-1" d="M489.66,17a1.28,1.28,0,1,0-1.28-1.28A1.28,1.28,0,0,0,489.66,17Z"/><path class="cls-1" d="M504.06,17a1.28,1.28,0,1,0-1.28-1.28A1.28,1.28,0,0,0,504.06,17Z"/><path class="cls-1" d="M518.46,17a1.28,1.28,0,1,0-1.28-1.28A1.28,1.28,0,0,0,518.46,17Z"/><path class="cls-1" d="M532.86,17a1.28,1.28,0,1,0-1.28-1.28A1.28,1.28,0,0,0,532.86,17Z"/><path class="cls-1" d="M324.06,31.36a1.28,1.28,0,1,0-1.28-1.28A1.28,1.28,0,0,0,324.06,31.36Z"/><path class="cls-1" d="M338.46,31.36a1.28,1.28,0,1,0-1.28-1.28A1.28,1.28,0,0,0,338.46,31.36Z"/><path class="cls-1" d="M352.86,31.36a1.28,1.28,0,1,0-1.28-1.28A1.28,1.28,0,0,0,352.86,31.36Z"/><path class="cls-1" d="M367.26,31.36A1.28,1.28,0,1,0,366,30.08,1.28,1.28,0,0,0,367.26,31.36Z"/><path class="cls-1" d="M381.66,31.36a1.28,1.28,0,1,0-1.28-1.28A1.28,1.28,0,0,0,381.66,31.36Z"/><path class="cls-1" d="M396.06,31.36a1.28,1.28,0,1,0-1.28-1.28A1.28,1.28,0,0,0,396.06,31.36Z"/><path class="cls-1" d="M410.46,31.36a1.28,1.28,0,1,0-1.28-1.28A1.28,1.28,0,0,0,410.46,31.36Z"/><path class="cls-1" d="M424.86,31.36a1.28,1.28,0,1,0-1.28-1.28A1.28,1.28,0,0,0,424.86,31.36Z"/><path class="cls-1" d="M439.26,31.36A1.28,1.28,0,1,0,438,30.08,1.28,1.28,0,0,0,439.26,31.36Z"/><path class="cls-1" d="M453.66,31.36a1.28,1.28,0,1,0-1.28-1.28A1.28,1.28,0,0,0,453.66,31.36Z"/><path class="cls-1" d="M468.06,31.36a1.28,1.28,0,1,0-1.28-1.28A1.28,1.28,0,0,0,468.06,31.36Z"/><path class="cls-1" d="M482.46,31.36a1.28,1.28,0,1,0-1.28-1.28A1.28,1.28,0,0,0,482.46,31.36Z"/><path class="cls-1" d="M496.86,31.36a1.28,1.28,0,1,0-1.28-1.28A1.28,1.28,0,0,0,496.86,31.36Z"/><path class="cls-1" d="M511.26,31.36A1.28,1.28,0,1,0,510,30.08,1.28,1.28,0,0,0,511.26,31.36Z"/><path class="cls-1" d="M525.66,31.36a1.28,1.28,0,1,0-1.28-1.28A1.28,1.28,0,0,0,525.66,31.36Z"/><path class="cls-1" d="M316.86,45.76a1.28,1.28,0,1,0-1.28-1.28A1.28,1.28,0,0,0,316.86,45.76Z"/><path class="cls-1" d="M331.26,45.76A1.28,1.28,0,1,0,330,44.48,1.28,1.28,0,0,0,331.26,45.76Z"/><path class="cls-1" d="M345.66,45.76a1.28,1.28,0,1,0-1.28-1.28A1.28,1.28,0,0,0,345.66,45.76Z"/><path class="cls-1" d="M360.06,45.76a1.28,1.28,0,1,0-1.28-1.28A1.28,1.28,0,0,0,360.06,45.76Z"/><path class="cls-1" d="M374.46,45.76a1.28,1.28,0,1,0-1.28-1.28A1.28,1.28,0,0,0,374.46,45.76Z"/><path class="cls-1" d="M388.86,45.76a1.28,1.28,0,1,0-1.28-1.28A1.28,1.28,0,0,0,388.86,45.76Z"/><path class="cls-1" d="M403.26,45.76A1.28,1.28,0,1,0,402,44.48,1.28,1.28,0,0,0,403.26,45.76Z"/><path class="cls-1" d="M417.66,45.76a1.28,1.28,0,1,0-1.28-1.28A1.28,1.28,0,0,0,417.66,45.76Z"/><path class="cls-1" d="M432.06,45.76a1.28,1.28,0,1,0-1.28-1.28A1.28,1.28,0,0,0,432.06,45.76Z"/><path class="cls-1" d="M446.46,45.76a1.28,1.28,0,1,0-1.28-1.28A1.28,1.28,0,0,0,446.46,45.76Z"/><path class="cls-1" d="M460.86,45.76a1.28,1.28,0,1,0-1.28-1.28A1.28,1.28,0,0,0,460.86,45.76Z"/><path class="cls-1" d="M475.26,45.76A1.28,1.28,0,1,0,474,44.48,1.28,1.28,0,0,0,475.26,45.76Z"/><path class="cls-1" d="M489.66,45.76a1.28,1.28,0,1,0-1.28-1.28A1.28,1.28,0,0,0,489.66,45.76Z"/><path class="cls-1" d="M504.06,45.76a1.28,1.28,0,1,0-1.28-1.28A1.28,1.28,0,0,0,504.06,45.76Z"/><path class="cls-1" d="M518.46,45.76a1.28,1.28,0,1,0-1.28-1.28A1.28,1.28,0,0,0,518.46,45.76Z"/><path class="cls-1" d="M532.86,45.76a1.28,1.28,0,1,0-1.28-1.28A1.28,1.28,0,0,0,532.86,45.76Z"/><path class="cls-1" d="M324.06,60.16a1.28,1.28,0,1,0-1.28-1.28A1.28,1.28,0,0,0,324.06,60.16Z"/><path class="cls-1" d="M338.46,60.16a1.28,1.28,0,1,0-1.28-1.28A1.28,1.28,0,0,0,338.46,60.16Z"/><path class="cls-1" d="M352.86,60.16a1.28,1.28,0,1,0-1.28-1.28A1.28,1.28,0,0,0,352.86,60.16Z"/><path class="cls-1" d="M367.26,60.16A1.28,1.28,0,1,0,366,58.88,1.28,1.28,0,0,0,367.26,60.16Z"/><path class="cls-1" d="M381.66,60.16a1.28,1.28,0,1,0-1.28-1.28A1.28,1.28,0,0,0,381.66,60.16Z"/><path class="cls-1" d="M396.06,60.16a1.28,1.28,0,1,0-1.28-1.28A1.28,1.28,0,0,0,396.06,60.16Z"/><path class="cls-1" d="M410.46,60.16a1.28,1.28,0,1,0-1.28-1.28A1.28,1.28,0,0,0,410.46,60.16Z"/><path class="cls-1" d="M424.86,60.16a1.28,1.28,0,1,0-1.28-1.28A1.28,1.28,0,0,0,424.86,60.16Z"/><path class="cls-1" d="M439.26,60.16A1.28,1.28,0,1,0,438,58.88,1.28,1.28,0,0,0,439.26,60.16Z"/><path class="cls-1" d="M453.66,60.16a1.28,1.28,0,1,0-1.28-1.28A1.28,1.28,0,0,0,453.66,60.16Z"/><path class="cls-1" d="M468.06,60.16a1.28,1.28,0,1,0-1.28-1.28A1.28,1.28,0,0,0,468.06,60.16Z"/><path class="cls-1" d="M482.46,60.16a1.28,1.28,0,1,0-1.28-1.28A1.28,1.28,0,0,0,482.46,60.16Z"/><path class="cls-1" d="M496.86,60.16a1.28,1.28,0,1,0-1.28-1.28A1.28,1.28,0,0,0,496.86,60.16Z"/><path class="cls-1" d="M511.26,60.16A1.28,1.28,0,1,0,510,58.88,1.28,1.28,0,0,0,511.26,60.16Z"/><path class="cls-1" d="M525.66,60.16a1.28,1.28,0,1,0-1.28-1.28A1.28,1.28,0,0,0,525.66,60.16Z"/><path class="cls-1" d="M316.86,74.56a1.28,1.28,0,1,0-1.28-1.28A1.28,1.28,0,0,0,316.86,74.56Z"/><circle class="cls-1" cx="331.26" cy="73.28" r="1.28"/><path class="cls-1" d="M345.66,74.56a1.28,1.28,0,1,0-1.28-1.28A1.28,1.28,0,0,0,345.66,74.56Z"/><path class="cls-1" d="M360.06,74.56a1.28,1.28,0,1,0-1.28-1.28A1.28,1.28,0,0,0,360.06,74.56Z"/><path class="cls-1" d="M374.46,74.56a1.28,1.28,0,1,0-1.28-1.28A1.28,1.28,0,0,0,374.46,74.56Z"/><path class="cls-1" d="M388.86,74.56a1.28,1.28,0,1,0-1.28-1.28A1.28,1.28,0,0,0,388.86,74.56Z"/><circle class="cls-1" cx="403.26" cy="73.28" r="1.28"/><path class="cls-1" d="M417.66,74.56a1.28,1.28,0,1,0-1.28-1.28A1.28,1.28,0,0,0,417.66,74.56Z"/><path class="cls-1" d="M432.06,74.56a1.28,1.28,0,1,0-1.28-1.28A1.28,1.28,0,0,0,432.06,74.56Z"/><path class="cls-1" d="M446.46,74.56a1.28,1.28,0,1,0-1.28-1.28A1.28,1.28,0,0,0,446.46,74.56Z"/><path class="cls-1" d="M460.86,74.56a1.28,1.28,0,1,0-1.28-1.28A1.28,1.28,0,0,0,460.86,74.56Z"/><circle class="cls-1" cx="475.26" cy="73.28" r="1.28"/><path class="cls-1" d="M489.66,74.56a1.28,1.28,0,1,0-1.28-1.28A1.28,1.28,0,0,0,489.66,74.56Z"/><path class="cls-1" d="M504.06,74.56a1.28,1.28,0,1,0-1.28-1.28A1.28,1.28,0,0,0,504.06,74.56Z"/><path class="cls-1" d="M518.46,74.56a1.28,1.28,0,1,0-1.28-1.28A1.28,1.28,0,0,0,518.46,74.56Z"/><path class="cls-1" d="M532.86,74.56a1.28,1.28,0,1,0-1.28-1.28A1.28,1.28,0,0,0,532.86,74.56Z"/><path class="cls-1" d="M324.06,89a1.28,1.28,0,1,0-1.28-1.28A1.28,1.28,0,0,0,324.06,89Z"/><path class="cls-1" d="M338.46,89a1.28,1.28,0,1,0-1.28-1.28A1.28,1.28,0,0,0,338.46,89Z"/><path class="cls-1" d="M352.86,89a1.28,1.28,0,1,0-1.28-1.28A1.28,1.28,0,0,0,352.86,89Z"/><circle class="cls-1" cx="367.26" cy="87.68" r="1.28"/><path class="cls-1" d="M381.66,89a1.28,1.28,0,1,0-1.28-1.28A1.28,1.28,0,0,0,381.66,89Z"/><path class="cls-1" d="M396.06,89a1.28,1.28,0,1,0-1.28-1.28A1.28,1.28,0,0,0,396.06,89Z"/><path class="cls-1" d="M410.46,89a1.28,1.28,0,1,0-1.28-1.28A1.28,1.28,0,0,0,410.46,89Z"/><path class="cls-1" d="M424.86,89a1.28,1.28,0,1,0-1.28-1.28A1.28,1.28,0,0,0,424.86,89Z"/><circle class="cls-1" cx="439.26" cy="87.68" r="1.28"/><path class="cls-1" d="M453.66,89a1.28,1.28,0,1,0-1.28-1.28A1.28,1.28,0,0,0,453.66,89Z"/><path class="cls-1" d="M468.06,89a1.28,1.28,0,1,0-1.28-1.28A1.28,1.28,0,0,0,468.06,89Z"/><path class="cls-1" d="M482.46,89a1.28,1.28,0,1,0-1.28-1.28A1.28,1.28,0,0,0,482.46,89Z"/><path class="cls-1" d="M496.86,89a1.28,1.28,0,1,0-1.28-1.28A1.28,1.28,0,0,0,496.86,89Z"/><circle class="cls-1" cx="511.26" cy="87.68" r="1.28"/><path class="cls-1" d="M525.66,89a1.28,1.28,0,1,0-1.28-1.28A1.28,1.28,0,0,0,525.66,89Z"/><path class="cls-1" d="M316.86,103.36a1.28,1.28,0,1,0-1.28-1.28A1.28,1.28,0,0,0,316.86,103.36Z"/><path class="cls-1" d="M331.26,103.36a1.28,1.28,0,1,0-1.28-1.28A1.28,1.28,0,0,0,331.26,103.36Z"/><path class="cls-1" d="M345.66,103.36a1.28,1.28,0,1,0-1.28-1.28A1.28,1.28,0,0,0,345.66,103.36Z"/><path class="cls-1" d="M360.06,103.36a1.28,1.28,0,1,0-1.28-1.28A1.28,1.28,0,0,0,360.06,103.36Z"/><path class="cls-1" d="M374.46,103.36a1.28,1.28,0,1,0-1.28-1.28A1.28,1.28,0,0,0,374.46,103.36Z"/><path class="cls-1" d="M388.86,103.36a1.28,1.28,0,1,0-1.28-1.28A1.28,1.28,0,0,0,388.86,103.36Z"/><path class="cls-1" d="M403.26,103.36a1.28,1.28,0,1,0-1.28-1.28A1.28,1.28,0,0,0,403.26,103.36Z"/><path class="cls-1" d="M417.66,103.36a1.28,1.28,0,1,0-1.28-1.28A1.28,1.28,0,0,0,417.66,103.36Z"/><path class="cls-1" d="M432.06,103.36a1.28,1.28,0,1,0-1.28-1.28A1.28,1.28,0,0,0,432.06,103.36Z"/><path class="cls-1" d="M446.46,103.36a1.28,1.28,0,1,0-1.28-1.28A1.28,1.28,0,0,0,446.46,103.36Z"/><path class="cls-1" d="M460.86,103.36a1.28,1.28,0,1,0-1.28-1.28A1.28,1.28,0,0,0,460.86,103.36Z"/><path class="cls-1" d="M475.26,103.36a1.28,1.28,0,1,0-1.28-1.28A1.28,1.28,0,0,0,475.26,103.36Z"/><path class="cls-1" d="M489.66,103.36a1.28,1.28,0,1,0-1.28-1.28A1.28,1.28,0,0,0,489.66,103.36Z"/><path class="cls-1" d="M504.06,103.36a1.28,1.28,0,1,0-1.28-1.28A1.28,1.28,0,0,0,504.06,103.36Z"/><path class="cls-1" d="M518.46,103.36a1.28,1.28,0,1,0-1.28-1.28A1.28,1.28,0,0,0,518.46,103.36Z"/><path class="cls-1" d="M532.86,103.36a1.28,1.28,0,1,0-1.28-1.28A1.28,1.28,0,0,0,532.86,103.36Z"/><path class="cls-1" d="M324.06,117.76a1.28,1.28,0,1,0-1.28-1.28A1.28,1.28,0,0,0,324.06,117.76Z"/><path class="cls-1" d="M338.46,117.76a1.28,1.28,0,1,0-1.28-1.28A1.28,1.28,0,0,0,338.46,117.76Z"/><path class="cls-1" d="M352.86,117.76a1.28,1.28,0,1,0-1.28-1.28A1.28,1.28,0,0,0,352.86,117.76Z"/><path class="cls-1" d="M367.26,117.76a1.28,1.28,0,1,0-1.28-1.28A1.28,1.28,0,0,0,367.26,117.76Z"/><path class="cls-1" d="M381.66,117.76a1.28,1.28,0,1,0-1.28-1.28A1.28,1.28,0,0,0,381.66,117.76Z"/><path class="cls-1" d="M396.06,117.76a1.28,1.28,0,1,0-1.28-1.28A1.28,1.28,0,0,0,396.06,117.76Z"/><path class="cls-1" d="M410.46,117.76a1.28,1.28,0,1,0-1.28-1.28A1.28,1.28,0,0,0,410.46,117.76Z"/><path class="cls-1" d="M424.86,117.76a1.28,1.28,0,1,0-1.28-1.28A1.28,1.28,0,0,0,424.86,117.76Z"/><path class="cls-1" d="M439.26,117.76a1.28,1.28,0,1,0-1.28-1.28A1.28,1.28,0,0,0,439.26,117.76Z"/><path class="cls-1" d="M453.66,117.76a1.28,1.28,0,1,0-1.28-1.28A1.28,1.28,0,0,0,453.66,117.76Z"/><path class="cls-1" d="M468.06,117.76a1.28,1.28,0,1,0-1.28-1.28A1.28,1.28,0,0,0,468.06,117.76Z"/><path class="cls-1" d="M482.46,117.76a1.28,1.28,0,1,0-1.28-1.28A1.28,1.28,0,0,0,482.46,117.76Z"/><path class="cls-1" d="M496.86,117.76a1.28,1.28,0,1,0-1.28-1.28A1.28,1.28,0,0,0,496.86,117.76Z"/><path class="cls-1" d="M511.26,117.76a1.28,1.28,0,1,0-1.28-1.28A1.28,1.28,0,0,0,511.26,117.76Z"/><path class="cls-1" d="M525.66,117.76a1.28,1.28,0,1,0-1.28-1.28A1.28,1.28,0,0,0,525.66,117.76Z"/><path class="cls-1" d="M316.86,132.16a1.28,1.28,0,1,0-1.28-1.28A1.28,1.28,0,0,0,316.86,132.16Z"/><path class="cls-1" d="M331.26,132.16a1.28,1.28,0,1,0-1.28-1.28A1.28,1.28,0,0,0,331.26,132.16Z"/><path class="cls-1" d="M345.66,132.16a1.28,1.28,0,1,0-1.28-1.28A1.28,1.28,0,0,0,345.66,132.16Z"/><path class="cls-1" d="M360.06,132.16a1.28,1.28,0,1,0-1.28-1.28A1.28,1.28,0,0,0,360.06,132.16Z"/><path class="cls-1" d="M374.46,132.16a1.28,1.28,0,1,0-1.28-1.28A1.28,1.28,0,0,0,374.46,132.16Z"/><path class="cls-1" d="M388.86,132.16a1.28,1.28,0,1,0-1.28-1.28A1.28,1.28,0,0,0,388.86,132.16Z"/><path class="cls-1" d="M403.26,132.16a1.28,1.28,0,1,0-1.28-1.28A1.28,1.28,0,0,0,403.26,132.16Z"/><path class="cls-1" d="M417.66,132.16a1.28,1.28,0,1,0-1.28-1.28A1.28,1.28,0,0,0,417.66,132.16Z"/><path class="cls-1" d="M432.06,132.16a1.28,1.28,0,1,0-1.28-1.28A1.28,1.28,0,0,0,432.06,132.16Z"/><path class="cls-1" d="M446.46,132.16a1.28,1.28,0,1,0-1.28-1.28A1.28,1.28,0,0,0,446.46,132.16Z"/><path class="cls-1" d="M460.86,132.16a1.28,1.28,0,1,0-1.28-1.28A1.28,1.28,0,0,0,460.86,132.16Z"/><path class="cls-1" d="M475.26,132.16a1.28,1.28,0,1,0-1.28-1.28A1.28,1.28,0,0,0,475.26,132.16Z"/><path class="cls-1" d="M489.66,132.16a1.28,1.28,0,1,0-1.28-1.28A1.28,1.28,0,0,0,489.66,132.16Z"/><path class="cls-1" d="M504.06,132.16a1.28,1.28,0,1,0-1.28-1.28A1.28,1.28,0,0,0,504.06,132.16Z"/><path class="cls-1" d="M518.46,132.16a1.28,1.28,0,1,0-1.28-1.28A1.28,1.28,0,0,0,518.46,132.16Z"/><path class="cls-1" d="M532.86,132.16a1.28,1.28,0,1,0-1.28-1.28A1.28,1.28,0,0,0,532.86,132.16Z"/><path class="cls-1" d="M324.06,146.56a1.28,1.28,0,1,0-1.28-1.28A1.28,1.28,0,0,0,324.06,146.56Z"/><path class="cls-1" d="M338.46,146.56a1.28,1.28,0,1,0-1.28-1.28A1.28,1.28,0,0,0,338.46,146.56Z"/><path class="cls-1" d="M352.86,146.56a1.28,1.28,0,1,0-1.28-1.28A1.28,1.28,0,0,0,352.86,146.56Z"/><circle class="cls-1" cx="367.26" cy="145.28" r="1.28"/><path class="cls-1" d="M381.66,146.56a1.28,1.28,0,1,0-1.28-1.28A1.28,1.28,0,0,0,381.66,146.56Z"/><path class="cls-1" d="M396.06,146.56a1.28,1.28,0,1,0-1.28-1.28A1.28,1.28,0,0,0,396.06,146.56Z"/><path class="cls-1" d="M410.46,146.56a1.28,1.28,0,1,0-1.28-1.28A1.28,1.28,0,0,0,410.46,146.56Z"/><path class="cls-1" d="M424.86,146.56a1.28,1.28,0,1,0-1.28-1.28A1.28,1.28,0,0,0,424.86,146.56Z"/><circle class="cls-1" cx="439.26" cy="145.28" r="1.28"/><path class="cls-1" d="M453.66,146.56a1.28,1.28,0,1,0-1.28-1.28A1.28,1.28,0,0,0,453.66,146.56Z"/><path class="cls-1" d="M468.06,146.56a1.28,1.28,0,1,0-1.28-1.28A1.28,1.28,0,0,0,468.06,146.56Z"/><path class="cls-1" d="M482.46,146.56a1.28,1.28,0,1,0-1.28-1.28A1.28,1.28,0,0,0,482.46,146.56Z"/><path class="cls-1" d="M496.86,146.56a1.28,1.28,0,1,0-1.28-1.28A1.28,1.28,0,0,0,496.86,146.56Z"/><circle class="cls-1" cx="511.26" cy="145.28" r="1.28"/><path class="cls-1" d="M525.66,146.56a1.28,1.28,0,1,0-1.28-1.28A1.28,1.28,0,0,0,525.66,146.56Z"/><path class="cls-1" d="M316.86,161a1.28,1.28,0,1,0-1.28-1.28A1.28,1.28,0,0,0,316.86,161Z"/><circle class="cls-1" cx="331.26" cy="159.68" r="1.28"/><path class="cls-1" d="M345.66,161a1.28,1.28,0,1,0-1.28-1.28A1.28,1.28,0,0,0,345.66,161Z"/><path class="cls-1" d="M360.06,161a1.28,1.28,0,1,0-1.28-1.28A1.28,1.28,0,0,0,360.06,161Z"/><path class="cls-1" d="M374.46,161a1.28,1.28,0,1,0-1.28-1.28A1.28,1.28,0,0,0,374.46,161Z"/><path class="cls-1" d="M388.86,161a1.28,1.28,0,1,0-1.28-1.28A1.28,1.28,0,0,0,388.86,161Z"/><circle class="cls-1" cx="403.26" cy="159.68" r="1.28"/><path class="cls-1" d="M417.66,161a1.28,1.28,0,1,0-1.28-1.28A1.28,1.28,0,0,0,417.66,161Z"/><path class="cls-1" d="M432.06,161a1.28,1.28,0,1,0-1.28-1.28A1.28,1.28,0,0,0,432.06,161Z"/><path class="cls-1" d="M446.46,161a1.28,1.28,0,1,0-1.28-1.28A1.28,1.28,0,0,0,446.46,161Z"/><path class="cls-1" d="M460.86,161a1.28,1.28,0,1,0-1.28-1.28A1.28,1.28,0,0,0,460.86,161Z"/><circle class="cls-1" cx="475.26" cy="159.68" r="1.28"/><path class="cls-1" d="M489.66,161a1.28,1.28,0,1,0-1.28-1.28A1.28,1.28,0,0,0,489.66,161Z"/><path class="cls-1" d="M504.06,161a1.28,1.28,0,1,0-1.28-1.28A1.28,1.28,0,0,0,504.06,161Z"/><path class="cls-1" d="M518.46,161a1.28,1.28,0,1,0-1.28-1.28A1.28,1.28,0,0,0,518.46,161Z"/><path class="cls-1" d="M532.86,161a1.28,1.28,0,1,0-1.28-1.28A1.28,1.28,0,0,0,532.86,161Z"/><path class="cls-1" d="M324.06,175.36a1.28,1.28,0,1,0-1.28-1.28A1.28,1.28,0,0,0,324.06,175.36Z"/><path class="cls-1" d="M338.46,175.36a1.28,1.28,0,1,0-1.28-1.28A1.28,1.28,0,0,0,338.46,175.36Z"/><path class="cls-1" d="M352.86,175.36a1.28,1.28,0,1,0-1.28-1.28A1.28,1.28,0,0,0,352.86,175.36Z"/><path class="cls-1" d="M367.26,175.36a1.28,1.28,0,1,0-1.28-1.28A1.28,1.28,0,0,0,367.26,175.36Z"/><path class="cls-1" d="M381.66,175.36a1.28,1.28,0,1,0-1.28-1.28A1.28,1.28,0,0,0,381.66,175.36Z"/><path class="cls-1" d="M396.06,175.36a1.28,1.28,0,1,0-1.28-1.28A1.28,1.28,0,0,0,396.06,175.36Z"/><path class="cls-1" d="M410.46,175.36a1.28,1.28,0,1,0-1.28-1.28A1.28,1.28,0,0,0,410.46,175.36Z"/><path class="cls-1" d="M424.86,175.36a1.28,1.28,0,1,0-1.28-1.28A1.28,1.28,0,0,0,424.86,175.36Z"/><path class="cls-1" d="M439.26,175.36a1.28,1.28,0,1,0-1.28-1.28A1.28,1.28,0,0,0,439.26,175.36Z"/><path class="cls-1" d="M453.66,175.36a1.28,1.28,0,1,0-1.28-1.28A1.28,1.28,0,0,0,453.66,175.36Z"/><path class="cls-1" d="M468.06,175.36a1.28,1.28,0,1,0-1.28-1.28A1.28,1.28,0,0,0,468.06,175.36Z"/><path class="cls-1" d="M482.46,175.36a1.28,1.28,0,1,0-1.28-1.28A1.28,1.28,0,0,0,482.46,175.36Z"/><path class="cls-1" d="M496.86,175.36a1.28,1.28,0,1,0-1.28-1.28A1.28,1.28,0,0,0,496.86,175.36Z"/><path class="cls-1" d="M511.26,175.36a1.28,1.28,0,1,0-1.28-1.28A1.28,1.28,0,0,0,511.26,175.36Z"/><path class="cls-1" d="M525.66,175.36a1.28,1.28,0,1,0-1.28-1.28A1.28,1.28,0,0,0,525.66,175.36Z"/><path class="cls-1" d="M316.86,189.76a1.28,1.28,0,1,0-1.28-1.28A1.28,1.28,0,0,0,316.86,189.76Z"/><path class="cls-1" d="M331.26,189.76a1.28,1.28,0,1,0-1.28-1.28A1.28,1.28,0,0,0,331.26,189.76Z"/><path class="cls-1" d="M345.66,189.76a1.28,1.28,0,1,0-1.28-1.28A1.28,1.28,0,0,0,345.66,189.76Z"/><path class="cls-1" d="M360.06,189.76a1.28,1.28,0,1,0-1.28-1.28A1.28,1.28,0,0,0,360.06,189.76Z"/><path class="cls-1" d="M374.46,189.76a1.28,1.28,0,1,0-1.28-1.28A1.28,1.28,0,0,0,374.46,189.76Z"/><path class="cls-1" d="M388.86,189.76a1.28,1.28,0,1,0-1.28-1.28A1.28,1.28,0,0,0,388.86,189.76Z"/><path class="cls-1" d="M403.26,189.76a1.28,1.28,0,1,0-1.28-1.28A1.28,1.28,0,0,0,403.26,189.76Z"/><path class="cls-1" d="M417.66,189.76a1.28,1.28,0,1,0-1.28-1.28A1.28,1.28,0,0,0,417.66,189.76Z"/><path class="cls-1" d="M432.06,189.76a1.28,1.28,0,1,0-1.28-1.28A1.28,1.28,0,0,0,432.06,189.76Z"/><path class="cls-1" d="M446.46,189.76a1.28,1.28,0,1,0-1.28-1.28A1.28,1.28,0,0,0,446.46,189.76Z"/><path class="cls-1" d="M460.86,189.76a1.28,1.28,0,1,0-1.28-1.28A1.28,1.28,0,0,0,460.86,189.76Z"/><path class="cls-1" d="M475.26,189.76a1.28,1.28,0,1,0-1.28-1.28A1.28,1.28,0,0,0,475.26,189.76Z"/><path class="cls-1" d="M489.66,189.76a1.28,1.28,0,1,0-1.28-1.28A1.28,1.28,0,0,0,489.66,189.76Z"/><path class="cls-1" d="M504.06,189.76a1.28,1.28,0,1,0-1.28-1.28A1.28,1.28,0,0,0,504.06,189.76Z"/><path class="cls-1" d="M518.46,189.76a1.28,1.28,0,1,0-1.28-1.28A1.28,1.28,0,0,0,518.46,189.76Z"/><path class="cls-1" d="M532.86,189.76a1.28,1.28,0,1,0-1.28-1.28A1.28,1.28,0,0,0,532.86,189.76Z"/><path class="cls-1" d="M324.06,204.16a1.28,1.28,0,1,0-1.28-1.28A1.28,1.28,0,0,0,324.06,204.16Z"/><path class="cls-1" d="M338.46,204.16a1.28,1.28,0,1,0-1.28-1.28A1.28,1.28,0,0,0,338.46,204.16Z"/><path class="cls-1" d="M352.86,204.16a1.28,1.28,0,1,0-1.28-1.28A1.28,1.28,0,0,0,352.86,204.16Z"/><path class="cls-1" d="M367.26,204.16a1.28,1.28,0,1,0-1.28-1.28A1.28,1.28,0,0,0,367.26,204.16Z"/><path class="cls-1" d="M381.66,204.16a1.28,1.28,0,1,0-1.28-1.28A1.28,1.28,0,0,0,381.66,204.16Z"/><path class="cls-1" d="M396.06,204.16a1.28,1.28,0,1,0-1.28-1.28A1.28,1.28,0,0,0,396.06,204.16Z"/><path class="cls-1" d="M410.46,204.16a1.28,1.28,0,1,0-1.28-1.28A1.28,1.28,0,0,0,410.46,204.16Z"/><path class="cls-1" d="M424.86,204.16a1.28,1.28,0,1,0-1.28-1.28A1.28,1.28,0,0,0,424.86,204.16Z"/><path class="cls-1" d="M439.26,204.16a1.28,1.28,0,1,0-1.28-1.28A1.28,1.28,0,0,0,439.26,204.16Z"/><path class="cls-1" d="M453.66,204.16a1.28,1.28,0,1,0-1.28-1.28A1.28,1.28,0,0,0,453.66,204.16Z"/><path class="cls-1" d="M468.06,204.16a1.28,1.28,0,1,0-1.28-1.28A1.28,1.28,0,0,0,468.06,204.16Z"/><path class="cls-1" d="M482.46,204.16a1.28,1.28,0,1,0-1.28-1.28A1.28,1.28,0,0,0,482.46,204.16Z"/><path class="cls-1" d="M496.86,204.16a1.28,1.28,0,1,0-1.28-1.28A1.28,1.28,0,0,0,496.86,204.16Z"/><path class="cls-1" d="M511.26,204.16a1.28,1.28,0,1,0-1.28-1.28A1.28,1.28,0,0,0,511.26,204.16Z"/><path class="cls-1" d="M525.66,204.16a1.28,1.28,0,1,0-1.28-1.28A1.28,1.28,0,0,0,525.66,204.16Z"/><path class="cls-1" d="M316.86,218.56a1.28,1.28,0,1,0-1.28-1.28A1.28,1.28,0,0,0,316.86,218.56Z"/><circle class="cls-1" cx="331.26" cy="217.28" r="1.28"/><path class="cls-1" d="M345.66,218.56a1.28,1.28,0,1,0-1.28-1.28A1.28,1.28,0,0,0,345.66,218.56Z"/><path class="cls-1" d="M360.06,218.56a1.28,1.28,0,1,0-1.28-1.28A1.28,1.28,0,0,0,360.06,218.56Z"/><path class="cls-1" d="M374.46,218.56a1.28,1.28,0,1,0-1.28-1.28A1.28,1.28,0,0,0,374.46,218.56Z"/><path class="cls-1" d="M388.86,218.56a1.28,1.28,0,1,0-1.28-1.28A1.28,1.28,0,0,0,388.86,218.56Z"/><circle class="cls-1" cx="403.26" cy="217.28" r="1.28"/><path class="cls-1" d="M417.66,218.56a1.28,1.28,0,1,0-1.28-1.28A1.28,1.28,0,0,0,417.66,218.56Z"/><path class="cls-1" d="M432.06,218.56a1.28,1.28,0,1,0-1.28-1.28A1.28,1.28,0,0,0,432.06,218.56Z"/><path class="cls-1" d="M446.46,218.56a1.28,1.28,0,1,0-1.28-1.28A1.28,1.28,0,0,0,446.46,218.56Z"/><path class="cls-1" d="M460.86,218.56a1.28,1.28,0,1,0-1.28-1.28A1.28,1.28,0,0,0,460.86,218.56Z"/><circle class="cls-1" cx="475.26" cy="217.28" r="1.28"/><path class="cls-1" d="M489.66,218.56a1.28,1.28,0,1,0-1.28-1.28A1.28,1.28,0,0,0,489.66,218.56Z"/><path class="cls-1" d="M504.06,218.56a1.28,1.28,0,1,0-1.28-1.28A1.28,1.28,0,0,0,504.06,218.56Z"/><path class="cls-1" d="M518.46,218.56a1.28,1.28,0,1,0-1.28-1.28A1.28,1.28,0,0,0,518.46,218.56Z"/><path class="cls-1" d="M532.86,218.56a1.28,1.28,0,1,0-1.28-1.28A1.28,1.28,0,0,0,532.86,218.56Z"/><path class="cls-1" d="M324.06,233a1.28,1.28,0,1,0-1.28-1.28A1.28,1.28,0,0,0,324.06,233Z"/><path class="cls-1" d="M338.46,233a1.28,1.28,0,1,0-1.28-1.28A1.28,1.28,0,0,0,338.46,233Z"/><path class="cls-1" d="M352.86,233a1.28,1.28,0,1,0-1.28-1.28A1.28,1.28,0,0,0,352.86,233Z"/><circle class="cls-1" cx="367.26" cy="231.68" r="1.28"/><path class="cls-1" d="M381.66,233a1.28,1.28,0,1,0-1.28-1.28A1.28,1.28,0,0,0,381.66,233Z"/><path class="cls-1" d="M396.06,233a1.28,1.28,0,1,0-1.28-1.28A1.28,1.28,0,0,0,396.06,233Z"/><path class="cls-1" d="M410.46,233a1.28,1.28,0,1,0-1.28-1.28A1.28,1.28,0,0,0,410.46,233Z"/><path class="cls-1" d="M424.86,233a1.28,1.28,0,1,0-1.28-1.28A1.28,1.28,0,0,0,424.86,233Z"/><circle class="cls-1" cx="439.26" cy="231.68" r="1.28"/><path class="cls-1" d="M453.66,233a1.28,1.28,0,1,0-1.28-1.28A1.28,1.28,0,0,0,453.66,233Z"/><path class="cls-1" d="M468.06,233a1.28,1.28,0,1,0-1.28-1.28A1.28,1.28,0,0,0,468.06,233Z"/><path class="cls-1" d="M482.46,233a1.28,1.28,0,1,0-1.28-1.28A1.28,1.28,0,0,0,482.46,233Z"/><path class="cls-1" d="M496.86,233a1.28,1.28,0,1,0-1.28-1.28A1.28,1.28,0,0,0,496.86,233Z"/><circle class="cls-1" cx="511.26" cy="231.68" r="1.28"/><path class="cls-1" d="M525.66,233a1.28,1.28,0,1,0-1.28-1.28A1.28,1.28,0,0,0,525.66,233Z"/><path class="cls-1" d="M316.86,247.36a1.28,1.28,0,1,0-1.28-1.28A1.28,1.28,0,0,0,316.86,247.36Z"/><path class="cls-1" d="M331.26,247.36a1.28,1.28,0,1,0-1.28-1.28A1.28,1.28,0,0,0,331.26,247.36Z"/><path class="cls-1" d="M345.66,247.36a1.28,1.28,0,1,0-1.28-1.28A1.28,1.28,0,0,0,345.66,247.36Z"/><path class="cls-1" d="M360.06,247.36a1.28,1.28,0,1,0-1.28-1.28A1.28,1.28,0,0,0,360.06,247.36Z"/><path class="cls-1" d="M374.46,247.36a1.28,1.28,0,1,0-1.28-1.28A1.28,1.28,0,0,0,374.46,247.36Z"/><path class="cls-1" d="M388.86,247.36a1.28,1.28,0,1,0-1.28-1.28A1.28,1.28,0,0,0,388.86,247.36Z"/><path class="cls-1" d="M403.26,247.36a1.28,1.28,0,1,0-1.28-1.28A1.28,1.28,0,0,0,403.26,247.36Z"/><path class="cls-1" d="M417.66,247.36a1.28,1.28,0,1,0-1.28-1.28A1.28,1.28,0,0,0,417.66,247.36Z"/><path class="cls-1" d="M432.06,247.36a1.28,1.28,0,1,0-1.28-1.28A1.28,1.28,0,0,0,432.06,247.36Z"/><path class="cls-1" d="M446.46,247.36a1.28,1.28,0,1,0-1.28-1.28A1.28,1.28,0,0,0,446.46,247.36Z"/><path class="cls-1" d="M460.86,247.36a1.28,1.28,0,1,0-1.28-1.28A1.28,1.28,0,0,0,460.86,247.36Z"/><path class="cls-1" d="M475.26,247.36a1.28,1.28,0,1,0-1.28-1.28A1.28,1.28,0,0,0,475.26,247.36Z"/><path class="cls-1" d="M489.66,247.36a1.28,1.28,0,1,0-1.28-1.28A1.28,1.28,0,0,0,489.66,247.36Z"/><path class="cls-1" d="M504.06,247.36a1.28,1.28,0,1,0-1.28-1.28A1.28,1.28,0,0,0,504.06,247.36Z"/><path class="cls-1" d="M518.46,247.36a1.28,1.28,0,1,0-1.28-1.28A1.28,1.28,0,0,0,518.46,247.36Z"/><path class="cls-1" d="M532.86,247.36a1.28,1.28,0,1,0-1.28-1.28A1.28,1.28,0,0,0,532.86,247.36Z"/><path class="cls-1" d="M324.06,261.76a1.28,1.28,0,1,0-1.28-1.28A1.28,1.28,0,0,0,324.06,261.76Z"/><path class="cls-1" d="M338.46,261.76a1.28,1.28,0,1,0-1.28-1.28A1.28,1.28,0,0,0,338.46,261.76Z"/><path class="cls-1" d="M352.86,261.76a1.28,1.28,0,1,0-1.28-1.28A1.28,1.28,0,0,0,352.86,261.76Z"/><path class="cls-1" d="M367.26,261.76a1.28,1.28,0,1,0-1.28-1.28A1.28,1.28,0,0,0,367.26,261.76Z"/><path class="cls-1" d="M381.66,261.76a1.28,1.28,0,1,0-1.28-1.28A1.28,1.28,0,0,0,381.66,261.76Z"/><path class="cls-1" d="M396.06,261.76a1.28,1.28,0,1,0-1.28-1.28A1.28,1.28,0,0,0,396.06,261.76Z"/><path class="cls-1" d="M410.46,261.76a1.28,1.28,0,1,0-1.28-1.28A1.28,1.28,0,0,0,410.46,261.76Z"/><path class="cls-1" d="M424.86,261.76a1.28,1.28,0,1,0-1.28-1.28A1.28,1.28,0,0,0,424.86,261.76Z"/><path class="cls-1" d="M439.26,261.76a1.28,1.28,0,1,0-1.28-1.28A1.28,1.28,0,0,0,439.26,261.76Z"/><path class="cls-1" d="M453.66,261.76a1.28,1.28,0,1,0-1.28-1.28A1.28,1.28,0,0,0,453.66,261.76Z"/><path class="cls-1" d="M468.06,261.76a1.28,1.28,0,1,0-1.28-1.28A1.28,1.28,0,0,0,468.06,261.76Z"/><path class="cls-1" d="M482.46,261.76a1.28,1.28,0,1,0-1.28-1.28A1.28,1.28,0,0,0,482.46,261.76Z"/><path class="cls-1" d="M496.86,261.76a1.28,1.28,0,1,0-1.28-1.28A1.28,1.28,0,0,0,496.86,261.76Z"/><path class="cls-1" d="M511.26,261.76a1.28,1.28,0,1,0-1.28-1.28A1.28,1.28,0,0,0,511.26,261.76Z"/><path class="cls-1" d="M525.66,261.76a1.28,1.28,0,1,0-1.28-1.28A1.28,1.28,0,0,0,525.66,261.76Z"/><path class="cls-1" d="M316.86,276.16a1.28,1.28,0,1,0-1.28-1.28A1.28,1.28,0,0,0,316.86,276.16Z"/><path class="cls-1" d="M331.26,276.16a1.28,1.28,0,1,0-1.28-1.28A1.28,1.28,0,0,0,331.26,276.16Z"/><path class="cls-1" d="M345.66,276.16a1.28,1.28,0,1,0-1.28-1.28A1.28,1.28,0,0,0,345.66,276.16Z"/><path class="cls-1" d="M360.06,276.16a1.28,1.28,0,1,0-1.28-1.28A1.28,1.28,0,0,0,360.06,276.16Z"/><path class="cls-1" d="M374.46,276.16a1.28,1.28,0,1,0-1.28-1.28A1.28,1.28,0,0,0,374.46,276.16Z"/><path class="cls-1" d="M388.86,276.16a1.28,1.28,0,1,0-1.28-1.28A1.28,1.28,0,0,0,388.86,276.16Z"/><path class="cls-1" d="M403.26,276.16a1.28,1.28,0,1,0-1.28-1.28A1.28,1.28,0,0,0,403.26,276.16Z"/><path class="cls-1" d="M417.66,276.16a1.28,1.28,0,1,0-1.28-1.28A1.28,1.28,0,0,0,417.66,276.16Z"/><path class="cls-1" d="M432.06,276.16a1.28,1.28,0,1,0-1.28-1.28A1.28,1.28,0,0,0,432.06,276.16Z"/><path class="cls-1" d="M446.46,276.16a1.28,1.28,0,1,0-1.28-1.28A1.28,1.28,0,0,0,446.46,276.16Z"/><path class="cls-1" d="M460.86,276.16a1.28,1.28,0,1,0-1.28-1.28A1.28,1.28,0,0,0,460.86,276.16Z"/><path class="cls-1" d="M475.26,276.16a1.28,1.28,0,1,0-1.28-1.28A1.28,1.28,0,0,0,475.26,276.16Z"/><path class="cls-1" d="M489.66,276.16a1.28,1.28,0,1,0-1.28-1.28A1.28,1.28,0,0,0,489.66,276.16Z"/><path class="cls-1" d="M504.06,276.16a1.28,1.28,0,1,0-1.28-1.28A1.28,1.28,0,0,0,504.06,276.16Z"/><path class="cls-1" d="M518.46,276.16a1.28,1.28,0,1,0-1.28-1.28A1.28,1.28,0,0,0,518.46,276.16Z"/><path class="cls-1" d="M532.86,276.16a1.28,1.28,0,1,0-1.28-1.28A1.28,1.28,0,0,0,532.86,276.16Z"/><path class="cls-1" d="M324.06,290.56a1.28,1.28,0,1,0-1.28-1.28A1.28,1.28,0,0,0,324.06,290.56Z"/><path class="cls-1" d="M338.46,290.56a1.28,1.28,0,1,0-1.28-1.28A1.28,1.28,0,0,0,338.46,290.56Z"/><path class="cls-1" d="M352.86,290.56a1.28,1.28,0,1,0-1.28-1.28A1.28,1.28,0,0,0,352.86,290.56Z"/><circle class="cls-1" cx="367.26" cy="289.28" r="1.28"/><path class="cls-1" d="M381.66,290.56a1.28,1.28,0,1,0-1.28-1.28A1.28,1.28,0,0,0,381.66,290.56Z"/><path class="cls-1" d="M396.06,290.56a1.28,1.28,0,1,0-1.28-1.28A1.28,1.28,0,0,0,396.06,290.56Z"/><path class="cls-1" d="M410.46,290.56a1.28,1.28,0,1,0-1.28-1.28A1.28,1.28,0,0,0,410.46,290.56Z"/><path class="cls-1" d="M424.86,290.56a1.28,1.28,0,1,0-1.28-1.28A1.28,1.28,0,0,0,424.86,290.56Z"/><circle class="cls-1" cx="439.26" cy="289.28" r="1.28"/><path class="cls-1" d="M453.66,290.56a1.28,1.28,0,1,0-1.28-1.28A1.28,1.28,0,0,0,453.66,290.56Z"/><path class="cls-1" d="M468.06,290.56a1.28,1.28,0,1,0-1.28-1.28A1.28,1.28,0,0,0,468.06,290.56Z"/><path class="cls-1" d="M482.46,290.56a1.28,1.28,0,1,0-1.28-1.28A1.28,1.28,0,0,0,482.46,290.56Z"/><path class="cls-1" d="M496.86,290.56a1.28,1.28,0,1,0-1.28-1.28A1.28,1.28,0,0,0,496.86,290.56Z"/><circle class="cls-1" cx="511.26" cy="289.28" r="1.28"/><path class="cls-1" d="M525.66,290.56a1.28,1.28,0,1,0-1.28-1.28A1.28,1.28,0,0,0,525.66,290.56Z"/><path class="cls-1" d="M316.86,305a1.28,1.28,0,1,0-1.28-1.28A1.28,1.28,0,0,0,316.86,305Z"/><circle class="cls-1" cx="331.26" cy="303.68" r="1.28"/><path class="cls-1" d="M345.66,305a1.28,1.28,0,1,0-1.28-1.28A1.28,1.28,0,0,0,345.66,305Z"/><path class="cls-1" d="M360.06,305a1.28,1.28,0,1,0-1.28-1.28A1.28,1.28,0,0,0,360.06,305Z"/><path class="cls-1" d="M374.46,305a1.28,1.28,0,1,0-1.28-1.28A1.28,1.28,0,0,0,374.46,305Z"/><path class="cls-1" d="M388.86,305a1.28,1.28,0,1,0-1.28-1.28A1.28,1.28,0,0,0,388.86,305Z"/><circle class="cls-1" cx="403.26" cy="303.68" r="1.28"/><path class="cls-1" d="M417.66,305a1.28,1.28,0,1,0-1.28-1.28A1.28,1.28,0,0,0,417.66,305Z"/><path class="cls-1" d="M432.06,305a1.28,1.28,0,1,0-1.28-1.28A1.28,1.28,0,0,0,432.06,305Z"/><path class="cls-1" d="M446.46,305a1.28,1.28,0,1,0-1.28-1.28A1.28,1.28,0,0,0,446.46,305Z"/><path class="cls-1" d="M460.86,305a1.28,1.28,0,1,0-1.28-1.28A1.28,1.28,0,0,0,460.86,305Z"/><circle class="cls-1" cx="475.26" cy="303.68" r="1.28"/><path class="cls-1" d="M489.66,305a1.28,1.28,0,1,0-1.28-1.28A1.28,1.28,0,0,0,489.66,305Z"/><path class="cls-1" d="M504.06,305a1.28,1.28,0,1,0-1.28-1.28A1.28,1.28,0,0,0,504.06,305Z"/><path class="cls-1" d="M518.46,305a1.28,1.28,0,1,0-1.28-1.28A1.28,1.28,0,0,0,518.46,305Z"/><path class="cls-1" d="M532.86,305a1.28,1.28,0,1,0-1.28-1.28A1.28,1.28,0,0,0,532.86,305Z"/><path class="cls-1" d="M9.33,317.48a1.28,1.28,0,0,0,0-2.56,1.28,1.28,0,1,0,0,2.56Z"/><path class="cls-1" d="M23.73,317.48a1.28,1.28,0,0,0,0-2.56,1.28,1.28,0,1,0,0,2.56Z"/><path class="cls-1" d="M38.13,317.48a1.28,1.28,0,0,0,0-2.56,1.28,1.28,0,0,0,0,2.56Z"/><circle class="cls-1" cx="52.53" cy="316.2" r="1.28"/><path class="cls-1" d="M66.93,317.48a1.28,1.28,0,1,0,0-2.56,1.28,1.28,0,1,0,0,2.56Z"/><path class="cls-1" d="M81.33,317.48a1.28,1.28,0,1,0,0-2.56,1.28,1.28,0,1,0,0,2.56Z"/><path class="cls-1" d="M95.73,317.48a1.28,1.28,0,1,0,0-2.56,1.28,1.28,0,1,0,0,2.56Z"/><path class="cls-1" d="M110.13,317.48a1.28,1.28,0,1,0,0-2.56,1.28,1.28,0,1,0,0,2.56Z"/><circle class="cls-1" cx="124.53" cy="316.2" r="1.28"/><path class="cls-1" d="M138.93,317.48a1.28,1.28,0,1,0,0-2.56,1.28,1.28,0,1,0,0,2.56Z"/><path class="cls-1" d="M153.33,317.48a1.28,1.28,0,1,0,0-2.56,1.28,1.28,0,1,0,0,2.56Z"/><path class="cls-1" d="M167.73,317.48a1.28,1.28,0,1,0,0-2.56,1.28,1.28,0,1,0,0,2.56Z"/><path class="cls-1" d="M182.13,317.48a1.28,1.28,0,1,0,0-2.56,1.28,1.28,0,1,0,0,2.56Z"/><circle class="cls-1" cx="196.53" cy="316.2" r="1.28"/><path class="cls-1" d="M210.93,317.48a1.28,1.28,0,1,0,0-2.56,1.28,1.28,0,1,0,0,2.56Z"/><path class="cls-1" d="M225.33,317.48a1.28,1.28,0,1,0,0-2.56,1.28,1.28,0,1,0,0,2.56Z"/><path class="cls-1" d="M239.73,317.48a1.28,1.28,0,1,0,0-2.56,1.28,1.28,0,1,0,0,2.56Z"/><path class="cls-1" d="M254.13,317.48a1.28,1.28,0,1,0,0-2.56,1.28,1.28,0,1,0,0,2.56Z"/><circle class="cls-1" cx="268.53" cy="316.2" r="1.28"/><path class="cls-1" d="M282.93,317.48a1.28,1.28,0,0,0,0-2.56,1.28,1.28,0,0,0,0,2.56Z"/><path class="cls-1" d="M297.33,317.48a1.28,1.28,0,1,0,0-2.56,1.28,1.28,0,1,0,0,2.56Z"/><path class="cls-1" d="M311.73,317.48a1.28,1.28,0,0,0,0-2.56,1.28,1.28,0,0,0,0,2.56Z"/><path class="cls-1" d="M324.91,317.48a1.28,1.28,0,1,0-1.28-1.28A1.28,1.28,0,0,0,324.91,317.48Z"/><path class="cls-1" d="M339.31,317.48A1.28,1.28,0,1,0,338,316.2,1.28,1.28,0,0,0,339.31,317.48Z"/><path class="cls-1" d="M353.71,317.48a1.28,1.28,0,1,0-1.28-1.28A1.28,1.28,0,0,0,353.71,317.48Z"/><circle class="cls-1" cx="368.11" cy="316.2" r="1.28"/><path class="cls-1" d="M382.51,317.48a1.28,1.28,0,1,0-1.28-1.28A1.28,1.28,0,0,0,382.51,317.48Z"/><path class="cls-1" d="M396.91,317.48a1.28,1.28,0,1,0-1.28-1.28A1.28,1.28,0,0,0,396.91,317.48Z"/><path class="cls-1" d="M411.31,317.48A1.28,1.28,0,1,0,410,316.2,1.28,1.28,0,0,0,411.31,317.48Z"/><path class="cls-1" d="M425.71,317.48a1.28,1.28,0,1,0-1.28-1.28A1.28,1.28,0,0,0,425.71,317.48Z"/><circle class="cls-1" cx="440.11" cy="316.2" r="1.28"/><path class="cls-1" d="M454.51,317.48a1.28,1.28,0,1,0-1.28-1.28A1.28,1.28,0,0,0,454.51,317.48Z"/><path class="cls-1" d="M468.91,317.48a1.28,1.28,0,1,0-1.28-1.28A1.28,1.28,0,0,0,468.91,317.48Z"/><path class="cls-1" d="M483.31,317.48A1.28,1.28,0,1,0,482,316.2,1.28,1.28,0,0,0,483.31,317.48Z"/><path class="cls-1" d="M497.71,317.48a1.28,1.28,0,1,0-1.28-1.28A1.28,1.28,0,0,0,497.71,317.48Z"/><circle class="cls-1" cx="512.11" cy="316.2" r="1.28"/><path class="cls-1" d="M526.51,317.48a1.28,1.28,0,1,0-1.28-1.28A1.28,1.28,0,0,0,526.51,317.48Z"/></g></g></svg>