<svg xmlns="http://www.w3.org/2000/svg" viewBox="0 0 291.35 106.57"><defs><style>.cls-1{fill:#fff;}</style></defs><title>logo</title><g id="Layer_2" data-name="Layer 2"><g id="Layer_2-2" data-name="Layer 2"><path class="cls-1" d="M144.77,38v17.5h-3.32l-8.72-10.62V55.54h-4V38h3.35l8.69,10.63V38Z"/><path class="cls-1" d="M151.35,38h4.05v17.5h-4.05Z"/><path class="cls-1" d="M165.6,41.34H160V38h15.25v3.3h-5.6v14.2H165.6Z"/><path class="cls-1" d="M179.85,38h4.05v17.5h-4.05Z"/><path class="cls-1" d="M206.52,38v17.5H203.2l-8.73-10.62V55.54h-4V38h3.34l8.7,10.63V38Z"/><path class="cls-1" d="M228.7,50.82c0,3-2.28,4.72-6.7,4.72h-8.35V38h7.85c4,0,6.27,1.7,6.27,4.53a4.14,4.14,0,0,1-2.35,3.9A4.22,4.22,0,0,1,228.7,50.82ZM216.15,40.07v5.6h5.12c2.55,0,4-1,4-2.8s-1.45-2.8-4-2.8Zm10,10.55c0-2-1.5-2.93-4.27-2.93h-5.75v5.83h5.75C224.67,53.52,226.17,52.64,226.17,50.62Z"/><path class="cls-1" d="M235,38h2.5v17.5H235Z"/><path class="cls-1" d="M256.87,55.54l-3.77-5.37c-.35,0-.73,0-1.1,0h-4.33v5.32h-2.5V38H252c4.55,0,7.3,2.3,7.3,6.1a5.53,5.53,0,0,1-3.85,5.53l4.15,5.87Zm-.07-11.4c0-2.5-1.68-3.92-4.88-3.92h-4.25v7.87h4.25C255.12,48.09,256.8,46.64,256.8,44.14Z"/><path class="cls-1" d="M265.78,38h7.37c5.62,0,9.45,3.55,9.45,8.75s-3.83,8.75-9.45,8.75h-7.37ZM273,53.37c4.32,0,7.1-2.65,7.1-6.58s-2.78-6.57-7.1-6.57h-4.72V53.37Z"/><path class="cls-1" d="M288.85,38h2.5v17.5h-2.5Z"/><path class="cls-1" d="M156.35,66.16a3.54,3.54,0,0,1,3.7-3.58,3.46,3.46,0,0,1,2.66,1.09l-.65.63a2.59,2.59,0,0,0-2-.83,2.69,2.69,0,1,0,0,5.38,2.6,2.6,0,0,0,2-.84l.65.63a3.47,3.47,0,0,1-2.67,1.1A3.54,3.54,0,0,1,156.35,66.16Z"/><path class="cls-1" d="M169.79,69.66l-1.51-2.15-.43,0h-1.73v2.13h-1v-7h2.73c1.81,0,2.91.92,2.91,2.44a2.21,2.21,0,0,1-1.54,2.21l1.66,2.35Zm0-4.56c0-1-.67-1.57-1.94-1.57h-1.7v3.15h1.7C169.09,66.68,169.76,66.1,169.76,65.1Z"/><path class="cls-1" d="M178.43,68.79v.87h-5.07v-7h4.93v.87h-3.93v2.15h3.5v.85h-3.5v2.26Z"/><path class="cls-1" d="M185.48,67.91h-3.71L181,69.66h-1l3.16-7h1l3.18,7h-1.05Zm-.35-.8-1.51-3.43-1.51,3.43Z"/><path class="cls-1" d="M190.36,63.53H188v-.87h5.78v.87h-2.4v6.13h-1Z"/><path class="cls-1" d="M195.81,62.66h1v7h-1Z"/><path class="cls-1" d="M205.88,62.66l-3.07,7h-1l-3.07-7h1.08l2.51,5.75,2.54-5.75Z"/><path class="cls-1" d="M212.82,68.79v.87h-5.07v-7h4.93v.87h-3.93v2.15h3.5v.85h-3.5v2.26Z"/><path class="cls-1" d="M223.53,67.91h-3.71l-.77,1.75h-1l3.17-7h1l3.18,7h-1Zm-.35-.8-1.5-3.43-1.51,3.43Z"/><path class="cls-1" d="M232.11,66.12h1v2.73a4.14,4.14,0,0,1-2.65.89,3.58,3.58,0,1,1,2.71-6.08l-.62.62a2.78,2.78,0,0,0-2-.81,2.69,2.69,0,1,0,0,5.38,3,3,0,0,0,1.64-.45Z"/><path class="cls-1" d="M241,68.79v.87H236v-7h4.93v.87H237v2.15h3.5v.85H237v2.26Z"/><path class="cls-1" d="M249.64,62.66v7h-.82l-4.19-5.22v5.22h-1v-7h.82l4.19,5.22V62.66Z"/><path class="cls-1" d="M252.15,66.16a3.54,3.54,0,0,1,3.7-3.58,3.46,3.46,0,0,1,2.66,1.09l-.65.63a2.59,2.59,0,0,0-2-.83,2.69,2.69,0,1,0,0,5.38,2.6,2.6,0,0,0,2-.84l.65.63a3.47,3.47,0,0,1-2.67,1.1A3.54,3.54,0,0,1,252.15,66.16Z"/><path class="cls-1" d="M263.47,67.24v2.42h-1V67.22l-2.77-4.56h1.07L263,66.35l2.24-3.69h1Z"/><path class="cls-1" d="M44.08,1.66c-21.57-.44-32.47,15.12-31.36,24,0,0,21.35-17.93,22.55-3.28.14,1.67.27,3.71.38,6,4.22-3.34,8.73-6.58,13.45-9.65,3.36-2.21,6.68-4.3,9.87-6.21l.2-.12C56.29,5.66,51.39,1.81,44.08,1.66Zm56.26,85.88c-1.37-1.09-1-5.34-1-5.34,1.5-18.17,7.5-39.62,9.57-46.64.07-.21.13-.41.18-.59l.36-1.19.08-.24c.07-.22.1-.33.1-.33,2.27-8.33,2.46-14.54,1.76-19.08A16.49,16.49,0,0,0,97.47.21a20.88,20.88,0,0,0-3-.21c-.48,0-1,0-1.48.05l-.58,0c-.31,0-.63.06-1,.1l-.9.12a2.63,2.63,0,0,0-.39.06c-.52.08-1.05.18-1.61.3L88.2.74c-.35.07-.7.16-1.06.25s-.81.2-1.22.32l-1.25.36q-1.31.41-2.73.93c-.46.17-.94.34-1.43.54s-1,.39-1.5.6q-1.24.51-2.58,1.11l-1,.48-1.24.58c-.83.39-1.68.82-2.56,1.27l-1.35.69-1,.54L67.09,9.56,64.48,11,63,11.91l-1.58.93c-.54.31-1.08.64-1.63,1-3,1.83-6.31,3.88-9.82,6.18q-7.7,5-14.2,10.25C8.09,52.37-3.56,76.32.94,93.39l.24.85c.12.38.24.75.37,1.1.07.19.14.38.22.56C8,111.31,28.32,107.79,38.31,99.39c11.85-10,21-28,23.48-54.16a113.18,113.18,0,0,0,.46-18.12A166.57,166.57,0,0,0,36.67,45.38l-1.09,1C34.79,61.05,31.93,78,24,88.47a11.18,11.18,0,0,1-5.06,3.7q-.32.09-.63.15a5.25,5.25,0,0,1-2.81-.26l-.3-.12a6.36,6.36,0,0,1-.91-.5l-.42-.3-.39-.34c-1.73-1.62-2.43-4.21-2.43-7.14,0-.33,0-.66,0-1a27,27,0,0,1,1-6c.15-.52.31-1,.48-1.54a33.28,33.28,0,0,1,1.48-3.66c.06-.14.13-.28.2-.43.18-.38.38-.78.61-1.23.4-.8.88-1.7,1.45-2.7.26-.45.53-.91.82-1.39.16-.28.34-.56.52-.85.44-.72.93-1.48,1.47-2.27S20.31,60.94,21,60l.69-.92q1.47-1.93,3.29-4.07c.24-.27.47-.55.72-.82q1.8-2.07,4-4.27c.35-.37.73-.75,1.11-1.11l1.16-1.14c1.17-1.14,2.43-2.29,3.76-3.47h0A167.74,167.74,0,0,1,62.12,25.44h0q2.61-1.53,5.42-3.07h0l.1-.06.39-.22.47-.26c.57-.31,1.35-.71,2.25-1.14.51-.24,1.06-.48,1.64-.71.38-.16.78-.31,1.18-.45a1.15,1.15,0,0,1,.17-.06c2.18-.75,4.5-1.2,6.15-.61a3.4,3.4,0,0,1,.69.34.35.35,0,0,1,.1.08c4.14,2.93,2,18.62-3,36.62-5.07,18.15-8.23,35.65-3.58,42,4,5.44,15.78,7.36,26.93,2,9.86-4.71,12.42-16.81,12.42-16.81C104.6,89,101.55,88.49,100.34,87.54Z"/></g></g></svg>